# File Created: 13.03.2013 14:54:06

mtllib Charlotte_Square_Edinburgh.mtl

#
# object Charlotte_Square_Edinburgh
#

v  74.9257 -0.0006 1.2681
v  71.7493 3.1758 1.1161
v  -76.1955 3.1758 1.1161
v  -79.3719 -0.0006 1.2681
v  -70.8271 8.5124 0.3094
v  66.3891 8.5124 0.3094
v  66.3891 8.5124 -1.2175
v  -70.8271 8.5124 -1.2175
v  74.9257 -0.0006 -1.2628
v  -79.3719 -0.0006 -1.2628
v  74.9257 -0.0006 0.6568
v  -79.3719 -0.0006 0.6568
v  74.9257 53.1221 1.2681
v  71.7493 49.9457 1.1161
v  66.3891 44.6078 0.3094
v  66.3891 44.6078 -1.2175
v  74.9257 53.1221 -1.2627
v  74.9257 53.1221 0.6568
v  -79.3719 53.1221 1.2681
v  -76.1955 49.9457 1.1161
v  -70.8271 44.6078 0.3094
v  -70.8271 44.6078 -1.2175
v  -79.3719 53.1221 -1.2627
v  -79.3719 53.1221 0.6568
v  71.7493 3.1758 0.5048
v  -76.1955 3.1758 0.5048
v  71.7493 49.9457 0.5048
v  -76.1955 49.9457 0.5048
v  66.8026 44.6169 -0.4071
v  -70.9985 44.6169 -0.4071
v  -70.9985 8.4382 -0.4071
v  66.8026 8.4382 -0.4071
# 32 vertices

vn -0.0239 0.0239 0.9994
vn 0.0239 0.0239 0.9994
vn 0.7071 0.7071 -0.0000
vn -0.7071 0.7071 0.0000
vn 0.0026 0.0027 -1.0000
vn -0.0026 0.0027 -1.0000
vn -0.0027 0.0027 -1.0000
vn 0.0027 0.0027 -1.0000
vn -0.7071 -0.7071 -0.0000
vn 0.7071 -0.7071 -0.0000
vn -0.0239 -0.0239 0.9994
vn -0.7071 -0.7071 0.0000
vn -0.0026 -0.0027 -1.0000
vn -0.0027 -0.0027 -1.0000
vn 0.0239 -0.0239 0.9994
vn 0.7071 -0.7071 0.0000
vn 0.0026 -0.0027 -1.0000
vn 0.0027 -0.0026 -1.0000
vn -0.7071 0.7071 -0.0000
vn -0.0183 0.0182 0.9997
vn -0.0182 0.0183 0.9997
vn 0.0182 0.0183 0.9997
vn 0.0183 0.0182 0.9997
vn -0.0183 -0.0182 0.9997
vn -0.0182 -0.0183 0.9997
vn 0.0183 -0.0182 0.9997
vn 0.0182 -0.0183 0.9997
vn 0.0000 -1.0000 -0.0000
vn 1.0000 0.0000 -0.0000
vn -0.0000 1.0000 0.0000
vn -1.0000 -0.0000 -0.0000
vn -1.0000 0.0000 -0.0000
vn 0.0000 1.0000 0.0000
vn 0.0000 -0.0000 1.0000
# 34 vertex normals

vt 0.4863 0.0025 0.0000
vt 0.4973 0.0135 0.0000
vt 0.4973 0.5267 0.0000
vt 0.4863 0.5377 0.0000
vt 0.8652 0.4785 0.0000
vt 0.8652 0.0025 0.0000
vt 0.8705 0.0025 0.0000
vt 0.8705 0.4785 0.0000
vt 0.3277 0.0321 0.0000
vt 0.3277 0.5081 0.0000
vt 0.2982 0.5377 0.0000
vt 0.2982 0.0025 0.0000
vt 0.8614 0.0025 0.0000
vt 0.8614 0.5377 0.0000
vt 0.8547 0.5377 0.0000
vt 0.8547 0.0025 0.0000
vt 0.6703 0.0025 0.0000
vt 0.6593 0.0135 0.0000
vt 0.7866 0.1998 0.0000
vt 0.7866 0.0746 0.0000
vt 0.7919 0.0746 0.0000
vt 0.7919 0.1998 0.0000
vt 0.4529 0.5081 0.0000
vt 0.4825 0.5377 0.0000
vt 0.8026 0.0746 0.0000
vt 0.8026 0.2589 0.0000
vt 0.7959 0.2589 0.0000
vt 0.7959 0.0746 0.0000
vt 0.6703 0.5377 0.0000
vt 0.6593 0.5267 0.0000
vt 0.8034 0.9955 0.0000
vt 0.8034 0.5195 0.0000
vt 0.8087 0.5195 0.0000
vt 0.8087 0.9955 0.0000
vt 0.4529 0.0321 0.0000
vt 0.4825 0.0025 0.0000
vt 0.8488 0.0025 0.0000
vt 0.8488 0.5377 0.0000
vt 0.8422 0.5377 0.0000
vt 0.8422 0.0025 0.0000
vt 0.8080 0.3860 0.0000
vt 0.8080 0.2608 0.0000
vt 0.8133 0.2608 0.0000
vt 0.8133 0.3860 0.0000
vt 0.8133 0.0746 0.0000
vt 0.8133 0.2589 0.0000
vt 0.8066 0.2589 0.0000
vt 0.8066 0.0746 0.0000
vt 0.6741 0.0025 0.0000
vt 0.6926 0.0211 0.0000
vt 0.6926 0.4971 0.0000
vt 0.6741 0.5157 0.0000
vt 0.8362 0.0025 0.0000
vt 0.8178 0.0211 0.0000
vt 0.8362 0.5157 0.0000
vt 0.8178 0.4971 0.0000
vt 0.8526 0.5377 0.0000
vt 0.8526 0.0025 0.0000
vt 0.7938 0.2589 0.0000
vt 0.7938 0.0746 0.0000
vt 0.8400 0.5377 0.0000
vt 0.8400 0.0025 0.0000
vt 0.8045 0.2589 0.0000
vt 0.8045 0.0746 0.0000
vt 0.8026 0.2608 0.0000
vt 0.8026 0.4230 0.0000
vt 0.8005 0.4230 0.0000
vt 0.8005 0.2608 0.0000
vt 0.8673 0.4823 0.0000
vt 0.8673 0.9955 0.0000
vt 0.8652 0.9955 0.0000
vt 0.8652 0.4823 0.0000
vt 0.7847 0.0746 0.0000
vt 0.7847 0.2368 0.0000
vt 0.7826 0.2368 0.0000
vt 0.7826 0.0746 0.0000
vt 0.8764 0.0025 0.0000
vt 0.8764 0.5157 0.0000
vt 0.8743 0.5157 0.0000
vt 0.8743 0.0025 0.0000
vt 0.6741 0.9975 0.0000
vt 0.6741 0.5195 0.0000
vt 0.7996 0.5195 0.0000
vt 0.7996 0.9975 0.0000
# 84 texture coords

g Charlotte_Square_Edinburgh
usemtl wire_177088027
s 2057
f 1/1/1 2/2/1 3/3/2
f 3/3/2 4/4/2 1/1/1
s 4132
f 5/5/3 6/6/4 7/7/4
f 7/7/4 8/8/3 5/5/3
s 8210
f 8/9/5 7/10/6 9/11/7
f 9/11/7 10/12/8 8/9/5
s 4132
f 10/13/9 9/14/10 11/15/10
f 11/15/10 12/16/9 10/13/9
s 2057
f 13/17/11 14/18/11 2/2/1
f 2/2/1 1/1/1 13/17/11
s 4132
f 6/19/4 15/20/12 16/21/12
f 16/21/12 7/22/4 6/19/4
s 8210
f 7/10/6 16/23/13 17/24/14
f 17/24/14 9/11/7 7/10/6
s 4132
f 9/25/10 17/26/3 18/27/3
f 18/27/3 11/28/10 9/25/10
s 2057
f 19/29/15 20/30/15 14/18/11
f 14/18/11 13/17/11 19/29/15
s 4132
f 15/31/12 21/32/16 22/33/16
f 22/33/16 16/34/12 15/31/12
s 8210
f 16/23/13 22/35/17 23/36/18
f 23/36/18 17/24/14 16/23/13
s 4132
f 17/37/3 23/38/19 24/39/19
f 24/39/19 18/40/3 17/37/3
s 2057
f 4/4/2 3/3/2 20/30/15
f 20/30/15 19/29/15 4/4/2
s 4132
f 21/41/16 5/42/3 8/43/3
f 8/43/3 22/44/16 21/41/16
s 8210
f 22/35/17 8/9/5 10/12/8
f 10/12/8 23/36/18 22/35/17
s 4132
f 23/45/19 10/46/9 12/47/9
f 12/47/9 24/48/19 23/45/19
s 2057
f 25/49/20 6/50/21 5/51/22
f 5/51/22 26/52/23 25/49/20
f 27/53/24 15/54/25 6/50/21
f 6/50/21 25/49/20 27/53/24
f 28/55/26 21/56/27 15/54/25
f 15/54/25 27/53/24 28/55/26
f 26/52/23 5/51/22 21/56/27
f 21/56/27 28/55/26 26/52/23
s off
f 12/16/28 11/15/28 1/57/28
f 1/57/28 4/58/28 12/16/28
f 11/28/29 18/27/29 13/59/29
f 13/59/29 1/60/29 11/28/29
f 18/40/30 24/39/30 19/61/30
f 19/61/30 13/62/30 18/40/30
f 24/48/31 12/47/31 4/63/31
f 4/63/31 19/64/31 24/48/31
f 26/65/29 28/66/29 20/67/29
f 20/67/29 3/68/29 26/65/29
f 28/69/28 27/70/28 14/71/28
f 14/71/28 20/72/28 28/69/28
f 27/73/32 25/74/32 2/75/32
f 2/75/32 14/76/32 27/73/32
f 25/77/33 26/78/33 3/79/33
f 3/79/33 2/80/33 25/77/33
s 1
f 29/81/34 30/82/34 31/83/34
f 31/83/34 32/84/34 29/81/34
# 58 faces

#
# object shadow
#

v  101.7758 69.9746 -1.6048
v  -110.0017 69.9746 -1.6049
v  -110.0017 -14.1705 -1.6049
v  101.7759 -14.1704 -1.6049
# 4 vertices

vn -0.0000 -0.0000 1.0000
# 1 vertex normals

vt 0.0025 0.7371 0.0000
vt 0.0025 0.0025 0.0000
vt 0.2944 0.0025 0.0000
vt 0.2944 0.7371 0.0000
# 4 texture coords

g shadow
usemtl wire_177088027
s 1
f 33/85/35 34/86/35 35/87/35
f 35/87/35 36/88/35 33/85/35
# 2 faces

