
# File Created: 10.01.2013 15:19:52



mtllib magazien2.mtl



#

# object Journal_003

#



v  -13.8229 -0.0471 -10.6232

v  -5.5542 2.0041 16.5250

v  -6.6626 2.1545 16.8513

v  -14.9313 0.1033 -10.2970

v  4.5006 -0.0471 -16.2042

v  12.7694 2.0041 10.9441

v  6.5711 -0.0471 -16.8348

v  14.8398 2.0041 10.3135

v  -13.8435 0.9315 -10.6909

v  -14.9499 0.9827 -10.3578

v  -6.6811 3.0339 16.7905

v  -5.5748 2.9827 16.4574

v  12.7487 2.9827 10.8765

v  4.4800 0.9315 -16.2718

v  6.6388 0.9315 -16.9293

v  14.9075 2.9827 10.2189

v  -5.5754 3.0133 16.4553

v  -6.6819 3.0701 16.7880

v  -6.6815 3.0505 16.7893

v  -5.5750 2.9937 16.4566

v  14.8869 3.9634 10.1511

v  14.8865 3.9830 10.1498

v  -13.8438 0.9462 -10.6919

v  -13.8442 0.9658 -10.6933

v  6.6341 1.1565 -16.9449

v  6.6344 1.1369 -16.9435

v  -14.9502 0.9993 -10.3589

v  -14.9506 1.0189 -10.3603

v  -2.1095 -0.0000 -0.4485

v  -2.1095 0.0000 28.0051

v  -3.2649 0.1508 28.0051

v  -3.2649 0.1508 -0.4485

v  12.5317 -0.0000 -0.4485

v  12.5317 0.0000 28.0051

v  14.7884 -0.0000 -0.4485

v  14.7884 0.0000 28.0051

v  17.0451 -0.0000 -0.4485

v  17.0451 0.0000 28.0051

v  19.2094 -0.0000 -0.4485

v  19.2094 0.0000 28.0051

v  -2.1095 0.9812 -0.4485

v  -3.2649 1.0324 -0.4485

v  -3.2649 1.0324 28.0051

v  -2.1095 0.9812 28.0051

v  14.7884 0.9812 28.0051

v  14.7884 0.9812 -0.4485

v  12.5317 0.9812 -0.4485

v  17.0451 0.9812 -0.4485

v  17.0451 0.9812 28.0051

v  19.3017 0.9812 -0.4485

v  19.3017 0.9812 28.0051

v  -2.1095 0.9959 14.8727

v  -3.2649 1.0491 14.8727

v  -3.2649 1.0491 12.6840

v  -2.1095 0.9959 12.6840

v  -2.1095 1.0118 28.0051

v  -3.2649 1.0687 28.0051

v  -3.2649 1.0491 28.0051

v  -2.1095 0.9922 28.0051

v  19.3017 1.9644 28.0051

v  19.3018 1.9841 28.0051

v  19.3018 1.1289 14.8727

v  19.3018 1.1093 14.8727

v  19.3017 1.0085 12.6840

v  19.3018 1.0281 12.6840

v  -2.1095 0.9959 -0.4485

v  -2.1095 1.0155 -0.4485

v  19.3018 1.2067 -0.4485

v  19.3017 1.1871 -0.4485

v  -3.2649 1.0491 -0.4485

v  -3.2649 1.0687 -0.4485

v  -3.2649 1.0687 12.6840

v  -3.2649 1.0687 14.8727

v  -2.1095 1.0155 14.8727

v  -2.1095 1.0155 12.6840

v  -2.1095 0.9959 1.7402

v  -3.2649 1.0491 1.7402

v  -2.1095 0.9959 3.9290

v  -3.2649 1.0491 3.9290

v  -2.1095 0.9959 6.1177

v  -3.2649 1.0491 6.1177

v  -2.1095 0.9959 8.3065

v  -3.2649 1.0491 8.3065

v  -2.1095 0.9959 10.4952

v  -3.2649 1.0491 10.4952

v  -3.2649 1.0491 25.8164

v  -2.1095 0.9955 25.8076

v  -3.2649 1.0491 23.6277

v  -2.1095 0.9960 23.6277

v  -3.2649 1.0491 21.4389

v  -2.1095 0.9959 21.4389

v  -3.2649 1.0491 19.2502

v  -2.1095 0.9959 19.2502

v  -3.2649 1.0491 17.0614

v  -2.1095 0.9959 17.0614

v  19.3018 1.1290 1.7404

v  19.3018 1.1094 1.7404

v  19.3018 1.0366 3.9290

v  19.3017 1.0170 3.9290

v  19.3018 1.0825 6.1177

v  19.3017 1.0629 6.1177

v  19.3018 1.0984 8.3065

v  19.3018 1.0788 8.3065

v  19.3018 1.0134 10.4952

v  19.3017 0.9938 10.4952

v  19.3017 1.5319 25.8386

v  19.3018 1.5515 25.8386

v  19.3015 1.2389 23.6277

v  19.3018 1.2585 23.6277

v  19.3016 1.1679 21.4389

v  19.3018 1.1875 21.4389

v  19.3018 1.1437 19.2502

v  19.3018 1.1633 19.2502

v  19.3018 1.0876 17.0614

v  19.3018 1.1072 17.0614

v  -3.2649 1.0687 25.8164

v  -3.2649 1.0687 23.6276

v  -3.2649 1.0687 21.4389

v  -3.2649 1.0687 19.2502

v  -3.2649 1.0687 17.0614

v  -3.2649 1.0687 1.7402

v  -3.2649 1.0687 3.9290

v  -3.2649 1.0687 6.1177

v  -3.2649 1.0687 8.3065

v  -3.2649 1.0687 10.4952

v  -2.1095 1.0155 1.7402

v  -2.1095 1.0155 3.9290

v  -2.1095 1.0155 6.1177

v  -2.1095 1.0155 8.3065

v  -2.1095 1.0155 10.4952

v  -2.1095 1.0151 25.8076

v  -2.1095 1.0157 23.6277

v  -2.1095 1.0155 21.4389

v  -2.1095 1.0155 19.2502

v  -2.1095 1.0155 17.0614

# 135 vertices



vn -0.0411 -0.9953 0.0877

vn -0.1030 -0.9890 0.1061

vn 0.0210 -0.9974 0.0690

vn 0.0002 0.9972 -0.0754

vn 0.0214 0.9964 -0.0818

vn -0.0210 0.9974 -0.0690

vn 0.2906 0.0721 0.9541

vn 0.9544 -0.0934 -0.2836

vn -0.2906 -0.0721 -0.9541

vn -0.9566 0.0000 0.2914

vn -0.0230 -0.9963 0.0823

vn -0.0261 -0.9962 0.0831

vn 0.9567 -0.0015 -0.2912

vn -0.9566 0.0012 0.2913

vn 0.0261 0.9962 -0.0831

vn -0.0143 0.9967 -0.0793

vn -0.0032 0.9972 -0.0743

vn 0.0230 0.9963 -0.0823

vn 0.0643 -0.9964 0.0555

vn 0.0375 -0.9950 0.0924

vn -0.0471 0.9962 -0.0726

vn -0.0723 0.9940 -0.0817

vn -0.0648 -0.9979 0.0000

vn -0.1294 -0.9916 0.0000

vn 0.0000 -1.0000 0.0000

vn -0.0000 -1.0000 0.0000

vn 0.0222 0.9998 -0.0000

vn 0.0443 0.9990 -0.0000

vn -0.0000 1.0000 -0.0000

vn 0.0000 1.0000 -0.0000

vn 0.0000 0.0000 1.0000

vn -0.0000 0.0000 1.0000

vn 0.0000 -0.0000 1.0000

vn 0.9956 -0.0937 0.0000

vn -0.0000 -0.0000 -1.0000

vn 0.0000 -0.0000 -1.0000

vn 0.0000 0.0000 -1.0000

vn -1.0000 0.0000 0.0000

vn -0.0460 -0.9989 0.0000

vn -0.0000 -0.0001 1.0000

vn 0.0000 0.0001 1.0000

vn -0.0000 0.0001 1.0000

vn 1.0000 0.0000 -0.0000

vn 1.0000 -0.0015 0.0001

vn -0.0000 0.0000 -1.0000

vn -1.0000 0.0012 -0.0000

vn 0.0460 0.9989 -0.0000

vn 0.0215 0.9998 -0.0007

vn 0.0229 0.9997 -0.0001

vn 0.0053 -1.0000 0.0000

vn 0.0006 -0.9989 0.0460

vn -0.0028 0.9997 -0.0249

vn -0.0048 0.9998 -0.0184

vn -0.0464 -0.9989 -0.0015

vn -0.0492 -0.9988 0.0000

vn -0.0459 -0.9989 -0.0002

vn -0.0464 -0.9989 0.0000

vn -0.0460 -0.9989 0.0001

vn -0.0459 -0.9989 0.0000

vn 1.0000 0.0009 0.0000

vn 1.0000 -0.0015 -0.0001

vn 1.0000 -0.0015 -0.0000

vn 1.0000 -0.0024 0.0001

vn 1.0000 -0.0015 0.0000

vn 1.0000 -0.0000 -0.0000

vn 1.0000 -0.0024 0.0000

vn 1.0000 -0.0027 -0.0001

vn 1.0000 -0.0027 0.0000

vn 1.0000 -0.0015 0.0003

vn 0.9999 -0.0129 0.0017

vn 1.0000 -0.0076 0.0002

vn 0.9999 -0.0129 0.0005

vn 1.0000 0.0010 -0.0000

vn 1.0000 -0.0000 0.0000

vn -1.0000 0.0012 0.0000

vn 0.0204 0.9998 -0.0000

vn 0.0202 0.9998 0.0012

vn 0.0215 0.9998 0.0007

vn 0.0220 0.9998 -0.0003

vn 0.0213 0.9998 -0.0001

vn 0.0221 0.9998 0.0006

vn 0.0093 0.9999 -0.0048

vn 0.0463 0.9989 0.0001

vn 0.0483 0.9988 0.0010

vn 0.0019 1.0000 0.0015

vn 0.0181 0.9998 -0.0005

vn 0.0459 0.9989 -0.0000

vn 0.0193 0.9998 -0.0002

vn 0.0202 0.9998 -0.0004

vn 0.0206 0.9998 0.0002

vn 0.0454 -0.9990 -0.0015

vn 0.0243 -0.9804 0.1957

vn 0.0250 -0.9997 -0.0002

vn 0.0112 -0.9913 0.1314

vn 0.0113 -0.9999 0.0001

vn 0.0080 -0.9994 0.0324

vn 0.0080 -1.0000 0.0000

vn 0.0069 -0.9999 0.0111

vn 0.0069 -1.0000 0.0000

vn 0.0043 -0.9997 0.0256

vn 0.0043 -1.0000 0.0000

vn 0.0053 -0.9999 -0.0099

vn 0.0089 -0.9993 -0.0355

vn 0.0010 -1.0000 0.0000

vn 0.0053 -0.9991 -0.0422

vn 0.0031 -1.0000 0.0000

vn 0.0010 -0.9998 0.0210

vn 0.0039 -1.0000 0.0000

vn 0.0031 -1.0000 0.0073

vn -0.0001 -1.0000 0.0000

vn 0.0039 -0.9992 -0.0388

vn 0.0006 -1.0000 0.0000

vn -0.0001 -1.0000 0.0067

vn -0.0050 0.9993 0.0363

vn -0.0089 0.9993 0.0355

vn -0.0020 0.9999 0.0113

vn -0.0035 0.9999 -0.0139

vn -0.0020 0.9999 0.0145

vn -0.0002 0.9999 0.0163

vn -0.0257 0.9828 -0.1831

vn -0.0245 0.9862 -0.1637

vn -0.0176 0.9968 -0.0778

vn -0.0096 0.9997 -0.0207

vn -0.0074 0.9998 -0.0180

vn -0.0055 1.0000 -0.0070

# 125 vertex normals



vt 0.5164 0.7854 0.0000

vt 0.7605 0.7854 0.0000

vt 0.7605 0.7953 0.0000

vt 0.5164 0.7953 0.0000

vt 0.5164 0.6211 0.0000

vt 0.7605 0.6211 0.0000

vt 0.5164 0.6025 0.0000

vt 0.7605 0.6025 0.0000

vt 0.5085 0.9876 0.0000

vt 0.5085 0.9975 0.0000

vt 0.2645 0.9975 0.0000

vt 0.2645 0.9876 0.0000

vt 0.2645 0.8233 0.0000

vt 0.5085 0.8233 0.0000

vt 0.5085 0.8039 0.0000

vt 0.2645 0.8039 0.0000

vt 0.9619 0.6101 0.0000

vt 0.9520 0.6114 0.0000

vt 0.9520 0.6029 0.0000

vt 0.9619 0.6025 0.0000

vt 0.7877 0.6114 0.0000

vt 0.7877 0.6029 0.0000

vt 0.7692 0.6114 0.0000

vt 0.7684 0.6029 0.0000

vt 0.7605 0.8116 0.0000

vt 0.5164 0.8116 0.0000

vt 0.5164 0.8032 0.0000

vt 0.7605 0.8032 0.0000

vt 0.9768 0.2258 0.0000

vt 0.9582 0.2258 0.0000

vt 0.9582 0.2174 0.0000

vt 0.9775 0.2174 0.0000

vt 0.7939 0.2258 0.0000

vt 0.7939 0.2174 0.0000

vt 0.7840 0.2245 0.0000

vt 0.7840 0.2169 0.0000

vt 0.7866 0.2476 0.0000

vt 0.5425 0.2476 0.0000

vt 0.5425 0.2401 0.0000

vt 0.7866 0.2401 0.0000

vt 0.9763 0.2415 0.0000

vt 0.9862 0.2407 0.0000

vt 0.9862 0.2408 0.0000

vt 0.9763 0.2417 0.0000

vt 0.7925 0.2402 0.0000

vt 0.7925 0.2401 0.0000

vt 0.7826 0.4133 0.0000

vt 0.7826 0.4132 0.0000

vt 0.9662 0.4115 0.0000

vt 0.9662 0.4117 0.0000

vt 0.7727 0.4129 0.0000

vt 0.7727 0.4127 0.0000

vt 0.7648 0.5881 0.0000

vt 0.5208 0.5881 0.0000

vt 0.5208 0.5781 0.0000

vt 0.7648 0.5781 0.0000

vt 0.7866 0.2564 0.0000

vt 0.7866 0.2566 0.0000

vt 0.5425 0.2537 0.0000

vt 0.5425 0.2535 0.0000

vt 0.7648 0.5959 0.0000

vt 0.7648 0.5961 0.0000

vt 0.5208 0.5961 0.0000

vt 0.5208 0.5959 0.0000

vt 0.2645 0.7961 0.0000

vt 0.2645 0.7861 0.0000

vt 0.5085 0.7861 0.0000

vt 0.5085 0.7961 0.0000

vt 0.7648 0.3945 0.0000

vt 0.5208 0.3945 0.0000

vt 0.5085 0.6025 0.0000

vt 0.2645 0.6025 0.0000

vt 0.7974 0.0286 0.0000

vt 0.5544 0.0124 0.0000

vt 0.5550 0.0025 0.0000

vt 0.7979 0.0187 0.0000

vt 0.7892 0.1539 0.0000

vt 0.5463 0.1376 0.0000

vt 0.7879 0.1732 0.0000

vt 0.5450 0.1570 0.0000

vt 0.7867 0.1925 0.0000

vt 0.5437 0.1763 0.0000

vt 0.7854 0.2110 0.0000

vt 0.5425 0.1948 0.0000

vt 0.5126 0.5780 0.0000

vt 0.5129 0.5879 0.0000

vt 0.2695 0.5946 0.0000

vt 0.2693 0.5847 0.0000

vt 0.2655 0.4399 0.0000

vt 0.5089 0.4332 0.0000

vt 0.5094 0.4525 0.0000

vt 0.5084 0.4138 0.0000

vt 0.2650 0.4205 0.0000

vt 0.5079 0.3945 0.0000

vt 0.2645 0.4012 0.0000

vt 0.9887 0.0128 0.0000

vt 0.9792 0.0139 0.0000

vt 0.9795 0.0055 0.0000

vt 0.9890 0.0053 0.0000

vt 0.8590 0.0118 0.0000

vt 0.8405 0.0115 0.0000

vt 0.8409 0.0031 0.0000

vt 0.8220 0.0112 0.0000

vt 0.8223 0.0028 0.0000

vt 0.8043 0.0109 0.0000

vt 0.8038 0.0025 0.0000

vt 0.0027 0.8188 0.0000

vt 0.2361 0.8178 0.0000

vt 0.2360 0.8262 0.0000

vt 0.0025 0.8272 0.0000

vt 0.9574 0.4029 0.0000

vt 0.9397 0.4032 0.0000

vt 0.9394 0.3948 0.0000

vt 0.9579 0.3945 0.0000

vt 0.9212 0.4035 0.0000

vt 0.9208 0.3951 0.0000

vt 0.9026 0.4037 0.0000

vt 0.9023 0.3954 0.0000

vt 0.7825 0.4056 0.0000

vt 0.7822 0.3972 0.0000

vt 0.7730 0.4045 0.0000

vt 0.7727 0.3969 0.0000

vt 0.7761 0.2245 0.0000

vt 0.5428 0.2322 0.0000

vt 0.5425 0.2246 0.0000

vt 0.7759 0.2169 0.0000

vt 0.1272 0.4119 0.0000

vt 0.1278 0.4020 0.0000

vt 0.1465 0.4032 0.0000

vt 0.1458 0.4131 0.0000

vt 0.9421 0.8042 0.0000

vt 0.9516 0.8032 0.0000

vt 0.9516 0.8033 0.0000

vt 0.9421 0.8044 0.0000

vt 0.7664 0.8065 0.0000

vt 0.7664 0.8063 0.0000

vt 0.6420 0.8225 0.0000

vt 0.6420 0.8227 0.0000

vt 0.6241 0.8229 0.0000

vt 0.6241 0.8228 0.0000

vt 0.8133 0.0226 0.0000

vt 0.8133 0.0225 0.0000

vt 0.9890 0.0247 0.0000

vt 0.9890 0.0249 0.0000

vt 0.8038 0.0220 0.0000

vt 0.8038 0.0218 0.0000

vt 0.1281 0.8387 0.0000

vt 0.1281 0.8388 0.0000

vt 0.1102 0.8394 0.0000

vt 0.1102 0.8393 0.0000

vt 0.1204 0.8068 0.0000

vt 0.1202 0.7969 0.0000

vt 0.1389 0.7964 0.0000

vt 0.1391 0.8063 0.0000

vt 0.1151 0.5951 0.0000

vt 0.1339 0.5963 0.0000

vt 0.1341 0.6129 0.0000

vt 0.1153 0.6134 0.0000

vt 0.2393 0.4193 0.0000

vt 0.2399 0.4095 0.0000

vt 0.2586 0.4107 0.0000

vt 0.2580 0.4206 0.0000

vt 0.2206 0.4181 0.0000

vt 0.2212 0.4082 0.0000

vt 0.2019 0.4169 0.0000

vt 0.2025 0.4070 0.0000

vt 0.1832 0.4156 0.0000

vt 0.1838 0.4057 0.0000

vt 0.1645 0.4144 0.0000

vt 0.1651 0.4045 0.0000

vt 0.0343 0.3958 0.0000

vt 0.0338 0.4056 0.0000

vt 0.0150 0.4044 0.0000

vt 0.0157 0.3945 0.0000

vt 0.0530 0.3970 0.0000

vt 0.0524 0.4069 0.0000

vt 0.0717 0.3982 0.0000

vt 0.0711 0.4081 0.0000

vt 0.0904 0.3995 0.0000

vt 0.0898 0.4094 0.0000

vt 0.1091 0.4007 0.0000

vt 0.1085 0.4106 0.0000

vt 0.5344 0.8188 0.0000

vt 0.5344 0.8190 0.0000

vt 0.5164 0.8177 0.0000

vt 0.5164 0.8175 0.0000

vt 0.5523 0.8202 0.0000

vt 0.5523 0.8204 0.0000

vt 0.5702 0.8204 0.0000

vt 0.5702 0.8206 0.0000

vt 0.5882 0.8209 0.0000

vt 0.5882 0.8211 0.0000

vt 0.6061 0.8223 0.0000

vt 0.6061 0.8224 0.0000

vt 0.7321 0.8222 0.0000

vt 0.7321 0.8220 0.0000

vt 0.7500 0.8189 0.0000

vt 0.7500 0.8191 0.0000

vt 0.7139 0.8241 0.0000

vt 0.7139 0.8239 0.0000

vt 0.6959 0.8241 0.0000

vt 0.6959 0.8239 0.0000

vt 0.6779 0.8237 0.0000

vt 0.6779 0.8235 0.0000

vt 0.6600 0.8235 0.0000

vt 0.6600 0.8233 0.0000

vt 0.0204 0.8422 0.0000

vt 0.0205 0.8424 0.0000

vt 0.0025 0.8430 0.0000

vt 0.0025 0.8428 0.0000

vt 0.0384 0.8416 0.0000

vt 0.0384 0.8418 0.0000

vt 0.0563 0.8410 0.0000

vt 0.0564 0.8412 0.0000

vt 0.0743 0.8405 0.0000

vt 0.0743 0.8406 0.0000

vt 0.0922 0.8399 0.0000

vt 0.0922 0.8400 0.0000

vt 0.2179 0.8359 0.0000

vt 0.2179 0.8357 0.0000

vt 0.2358 0.8351 0.0000

vt 0.2358 0.8353 0.0000

vt 0.1999 0.8365 0.0000

vt 0.1999 0.8363 0.0000

vt 0.1820 0.8371 0.0000

vt 0.1820 0.8369 0.0000

vt 0.1640 0.8377 0.0000

vt 0.1640 0.8375 0.0000

vt 0.1461 0.8383 0.0000

vt 0.1461 0.8381 0.0000

vt 0.2327 0.8037 0.0000

vt 0.2325 0.7938 0.0000

vt 0.2512 0.7933 0.0000

vt 0.2514 0.8032 0.0000

vt 0.2140 0.8042 0.0000

vt 0.2138 0.7943 0.0000

vt 0.1953 0.8048 0.0000

vt 0.1951 0.7949 0.0000

vt 0.1766 0.8053 0.0000

vt 0.1763 0.7954 0.0000

vt 0.1578 0.8058 0.0000

vt 0.1576 0.7959 0.0000

vt 0.0266 0.7995 0.0000

vt 0.0268 0.8094 0.0000

vt 0.0081 0.8099 0.0000

vt 0.0078 0.8000 0.0000

vt 0.0453 0.7990 0.0000

vt 0.0455 0.8089 0.0000

vt 0.0640 0.7985 0.0000

vt 0.0642 0.8084 0.0000

vt 0.0827 0.7979 0.0000

vt 0.0830 0.8078 0.0000

vt 0.1014 0.7974 0.0000

vt 0.1017 0.8073 0.0000

vt 0.0025 0.5877 0.0000

vt 0.0213 0.5889 0.0000

vt 0.0403 0.5901 0.0000

vt 0.0590 0.5914 0.0000

vt 0.0777 0.5926 0.0000

vt 0.0965 0.5938 0.0000

vt 0.2272 0.6026 0.0000

vt 0.2459 0.6038 0.0000

vt 0.2086 0.6013 0.0000

vt 0.1899 0.6001 0.0000

vt 0.1712 0.5988 0.0000

vt 0.1526 0.5976 0.0000

vt 0.2277 0.6103 0.0000

vt 0.2463 0.6098 0.0000

vt 0.2090 0.6108 0.0000

vt 0.1902 0.6113 0.0000

vt 0.1715 0.6118 0.0000

vt 0.1528 0.6124 0.0000

vt 0.0025 0.6163 0.0000

vt 0.0213 0.6159 0.0000

vt 0.0404 0.6154 0.0000

vt 0.0591 0.6149 0.0000

vt 0.0779 0.6144 0.0000

vt 0.0966 0.6139 0.0000

# 278 texture coords



g Journal_003

usemtl Material__28

s 2

f 1/1/1 2/2/1 3/3/2

f 3/3/2 4/4/2 1/1/1

f 2/2/1 1/1/1 5/5/3

f 5/5/3 6/6/3 2/2/1

f 7/7/3 8/8/3 6/6/3

f 6/6/3 5/5/3 7/7/3

usemtl Material__27

s 4

f 9/9/4 10/10/5 11/11/5

f 11/11/5 12/12/4 9/9/4

f 12/12/4 13/13/6 14/14/6

f 14/14/6 9/9/4 12/12/4

f 15/15/6 14/14/6 13/13/6

f 13/13/6 16/16/6 15/15/6

usemtl Material__29

s 8

f 3/17/7 2/18/7 12/19/7

f 12/19/7 11/20/7 3/17/7

f 2/18/7 6/21/7 13/22/7

f 13/22/7 12/19/7 2/18/7

f 6/21/7 8/23/7 16/24/7

f 16/24/7 13/22/7 6/21/7

usemtl Material__31

s 16

f 8/25/8 7/26/8 15/27/8

f 15/27/8 16/28/8 8/25/8

usemtl Material__29

s 32

f 7/29/9 5/30/9 14/31/9

f 14/31/9 15/32/9 7/29/9

f 5/30/9 1/33/9 9/34/9

f 9/34/9 14/31/9 5/30/9

f 1/33/9 4/35/9 10/36/9

f 10/36/9 9/34/9 1/33/9

usemtl Material__30

s 64

f 4/37/10 3/38/10 11/39/10

f 11/39/10 10/40/10 4/37/10

usemtl Material__28

s off

f 17/41/7 18/42/7 19/43/7

f 19/43/7 20/44/7 17/41/7

f 21/45/7 22/46/7 17/41/7

f 17/41/7 20/44/7 21/45/7

f 23/47/9 24/48/9 25/49/9

f 25/49/9 26/50/9 23/47/9

f 24/48/9 23/47/9 27/51/9

f 27/51/9 28/52/9 24/48/9

usemtl Material__26

f 19/53/11 27/54/11 23/55/11

f 23/55/12 20/56/12 19/53/12

usemtl Material__28

f 22/57/13 21/58/13 26/59/13

f 26/59/13 25/60/13 22/57/13

f 28/61/14 27/62/14 19/63/14

f 19/63/14 18/64/14 28/61/14

s 1

f 18/65/15 17/66/16 24/67/17

f 24/67/17 28/68/18 18/65/15

usemtl Material__26

s off

f 21/69/19 20/56/19 23/55/19

f 23/55/20 26/70/20 21/69/20

usemtl Material__28

s 1

f 25/71/21 24/67/17 17/66/16

f 17/66/16 22/72/22 25/71/21

s 2

f 29/73/23 30/74/23 31/75/24

f 31/75/24 32/76/24 29/73/23

f 30/74/23 29/73/23 33/77/25

f 33/77/25 34/78/26 30/74/23

f 35/79/25 36/80/26 34/78/26

f 34/78/26 33/77/25 35/79/25

f 37/81/26 38/82/26 36/80/26

f 36/80/26 35/79/25 37/81/26

f 39/83/26 40/84/26 38/82/26

f 38/82/26 37/81/26 39/83/26

usemtl Material__27

s 4

f 41/85/27 42/86/28 43/87/28

f 43/87/28 44/88/27 41/85/27

f 45/89/29 46/90/30 47/91/29

f 44/88/27 45/89/29 47/91/29

f 44/88/27 47/91/29 41/85/27

f 48/92/29 46/90/30 45/89/29

f 45/89/29 49/93/29 48/92/29

f 50/94/29 48/92/29 49/93/29

f 49/93/29 51/95/30 50/94/29

usemtl Material__29

s 8

f 31/96/31 30/97/32 44/98/32

f 44/98/32 43/99/33 31/96/31

f 34/100/33 36/101/33 45/102/33

f 30/97/32 34/100/33 45/102/33

f 30/97/32 45/102/33 44/98/32

f 36/101/33 38/103/33 49/104/33

f 49/104/33 45/102/33 36/101/33

f 38/103/33 40/105/33 51/106/33

f 51/106/33 49/104/33 38/103/33

usemtl Material__31

s 16

f 40/107/34 39/108/34 50/109/34

f 50/109/34 51/110/34 40/107/34

usemtl Material__29

s 32

f 39/111/35 37/112/35 48/113/35

f 48/113/35 50/114/35 39/111/35

f 37/112/35 35/115/35 46/116/35

f 46/116/35 48/113/35 37/112/35

f 35/115/35 33/117/35 47/118/35

f 47/118/35 46/116/35 35/115/35

f 33/117/35 29/119/36 41/120/36

f 41/120/36 47/118/35 33/117/35

f 29/119/36 32/121/37 42/122/37

f 42/122/37 41/120/36 29/119/36

usemtl Material__30

s 64

f 32/123/38 31/124/38 43/125/38

f 43/125/38 42/126/38 32/123/38

usemtl Material__26

s off

f 52/127/39 53/128/39 54/129/39

f 54/129/39 55/130/39 52/127/39

usemtl Material__25

f 56/131/40 57/132/40 58/133/40

f 58/133/41 59/134/41 56/131/41

f 60/135/32 61/136/32 56/131/32

f 56/131/42 59/134/42 60/135/42

f 62/137/43 63/138/43 64/139/43

f 64/139/44 65/140/44 62/137/44

f 66/141/45 67/142/45 68/143/45

f 68/143/45 69/144/45 66/141/45

f 67/142/37 66/141/37 70/145/37

f 70/145/35 71/146/35 67/142/35

f 72/147/46 54/148/46 53/149/46

f 53/149/46 73/150/46 72/147/46

s 1

f 73/151/47 74/152/48 75/153/49

f 75/153/49 72/154/47 73/151/47

usemtl Material__26

s off

f 63/155/50 52/127/50 55/130/50

f 55/130/51 64/156/51 63/155/51

usemtl Material__25

s 1

f 65/157/52 75/153/49 74/152/48

f 74/152/48 62/158/53 65/157/52

usemtl Material__26

s off

f 76/159/39 77/160/39 70/161/39

f 70/161/39 66/162/39 76/159/39

f 78/163/39 79/164/39 77/160/39

f 77/160/39 76/159/39 78/163/39

f 80/165/39 81/166/39 79/164/39

f 79/164/39 78/163/39 80/165/39

f 82/167/39 83/168/39 81/166/39

f 81/166/39 80/165/39 82/167/39

f 84/169/39 85/170/39 83/168/39

f 83/168/39 82/167/39 84/169/39

f 55/130/39 54/129/39 85/170/39

f 85/170/39 84/169/39 55/130/39

f 86/171/54 87/172/54 59/173/54

f 59/173/55 58/174/55 86/171/55

f 88/175/56 89/176/56 87/172/56

f 87/172/57 86/171/57 88/175/57

f 90/177/58 91/178/58 89/176/58

f 89/176/59 88/175/59 90/177/59

f 92/179/39 93/180/39 91/178/39

f 91/178/39 90/177/39 92/179/39

f 94/181/39 95/182/39 93/180/39

f 93/180/39 92/179/39 94/181/39

f 53/128/39 52/127/39 95/182/39

f 95/182/39 94/181/39 53/128/39

usemtl Material__25

f 96/183/60 97/184/60 69/185/60

f 69/185/61 68/186/61 96/183/61

f 98/187/62 99/188/62 97/184/62

f 97/184/60 96/183/60 98/187/60

f 100/189/63 101/190/63 99/188/63

f 99/188/64 98/187/64 100/189/64

f 102/191/65 103/192/65 101/190/65

f 101/190/66 100/189/66 102/191/66

f 104/193/67 105/194/67 103/192/67

f 103/192/65 102/191/65 104/193/65

f 65/140/62 64/139/62 105/194/62

f 105/194/68 104/193/68 65/140/68

f 106/195/69 107/196/69 61/197/69

f 61/197/69 60/198/69 106/195/69

f 108/199/70 109/200/70 107/196/70

f 107/196/44 106/195/44 108/199/44

f 110/201/71 111/202/71 109/200/71

f 109/200/72 108/199/72 110/201/72

f 112/203/73 113/204/73 111/202/73

f 111/202/71 110/201/71 112/203/71

f 114/205/74 115/206/74 113/204/74

f 113/204/73 112/203/73 114/205/73

f 63/138/43 62/137/43 115/206/43

f 115/206/65 114/205/65 63/138/65

f 116/207/75 86/208/75 58/209/75

f 58/209/75 57/210/75 116/207/75

f 117/211/46 88/212/46 86/208/46

f 86/208/46 116/207/46 117/211/46

f 118/213/46 90/214/46 88/212/46

f 88/212/75 117/211/75 118/213/75

f 119/215/75 92/216/75 90/214/75

f 90/214/46 118/213/46 119/215/46

f 120/217/46 94/218/46 92/216/46

f 92/216/75 119/215/75 120/217/75

f 73/150/46 53/149/46 94/218/46

f 94/218/46 120/217/46 73/150/46

f 77/219/75 121/220/75 71/221/75

f 71/221/46 70/222/46 77/219/46

f 79/223/75 122/224/75 121/220/75

f 121/220/75 77/219/75 79/223/75

f 81/225/46 123/226/46 122/224/46

f 122/224/46 79/223/46 81/225/46

f 83/227/46 124/228/46 123/226/46

f 123/226/46 81/225/46 83/227/46

f 85/229/75 125/230/75 124/228/75

f 124/228/75 83/227/75 85/229/75

f 54/148/75 72/147/75 125/230/75

f 125/230/75 85/229/75 54/148/75

s 1

f 121/231/47 126/232/76 67/233/77

f 67/233/77 71/234/47 121/231/47

f 122/235/47 127/236/78 126/232/76

f 126/232/76 121/231/47 122/235/47

f 123/237/47 128/238/79 127/236/78

f 127/236/78 122/235/47 123/237/47

f 124/239/47 129/240/80 128/238/79

f 128/238/79 123/237/47 124/239/47

f 125/241/47 130/242/81 129/240/80

f 129/240/80 124/239/47 125/241/47

f 72/154/47 75/153/49 130/242/81

f 130/242/81 125/241/47 72/154/47

f 131/243/82 116/244/83 57/245/84

f 57/245/84 56/246/85 131/243/82

f 132/247/86 117/248/87 116/244/83

f 116/244/83 131/243/82 132/247/86

f 133/249/88 118/250/47 117/248/87

f 117/248/87 132/247/86 133/249/88

f 134/251/89 119/252/47 118/250/47

f 118/250/47 133/249/88 134/251/89

f 135/253/90 120/254/47 119/252/47

f 119/252/47 134/251/89 135/253/90

f 74/152/48 73/151/47 120/254/47

f 120/254/47 135/253/90 74/152/48

usemtl Material__26

s off

f 60/255/91 59/173/91 87/172/91

f 87/172/92 106/256/92 60/255/92

f 106/256/93 87/172/93 89/176/93

f 89/176/94 108/257/94 106/256/94

f 108/257/95 89/176/95 91/178/95

f 91/178/96 110/258/96 108/257/96

f 110/258/97 91/178/97 93/180/97

f 93/180/98 112/259/98 110/258/98

f 112/259/99 93/180/99 95/182/99

f 95/182/100 114/260/100 112/259/100

f 114/260/101 95/182/101 52/127/101

f 52/127/102 63/155/102 114/260/102

f 97/261/50 76/159/50 66/162/50

f 66/162/103 69/262/103 97/261/103

f 99/263/104 78/163/104 76/159/104

f 76/159/105 97/261/105 99/263/105

f 101/264/106 80/165/106 78/163/106

f 78/163/107 99/263/107 101/264/107

f 103/265/108 82/167/108 80/165/108

f 80/165/109 101/264/109 103/265/109

f 105/266/110 84/169/110 82/167/110

f 82/167/111 103/265/111 105/266/111

f 64/156/112 55/130/112 84/169/112

f 84/169/113 105/266/113 64/156/113

usemtl Material__25

s 1

f 67/233/77 126/232/76 96/267/114

f 96/267/114 68/268/115 67/233/77

f 96/267/114 126/232/76 127/236/78

f 127/236/78 98/269/116 96/267/114

f 98/269/116 127/236/78 128/238/79

f 128/238/79 100/270/117 98/269/116

f 100/270/117 128/238/79 129/240/80

f 129/240/80 102/271/118 100/270/117

f 102/271/118 129/240/80 130/242/81

f 130/242/81 104/272/119 102/271/118

f 104/272/119 130/242/81 75/153/49

f 75/153/49 65/157/52 104/272/119

f 61/273/120 107/274/121 131/243/82

f 131/243/82 56/246/85 61/273/120

f 109/275/122 132/247/86 131/243/82

f 131/243/82 107/274/121 109/275/122

f 111/276/123 133/249/88 132/247/86

f 132/247/86 109/275/122 111/276/123

f 113/277/124 134/251/89 133/249/88

f 133/249/88 111/276/123 113/277/124

f 115/278/125 135/253/90 134/251/89

f 134/251/89 113/277/124 115/278/125

f 62/158/53 74/152/48 135/253/90

f 135/253/90 115/278/125 62/158/53

# 254 faces



#

# object shadow

#



v  -17.2749 -0.0000 -22.6158

v  -17.2749 0.0000 38.4755

v  25.8628 0.0000 38.4755

v  25.8628 -0.0000 -22.6158

# 4 vertices



vn -0.0000 1.0000 -0.0000

# 1 vertex normals



vt 0.5346 0.3723 0.0000

vt 0.0121 0.3866 0.0000

vt 0.0025 0.0168 0.0000

vt 0.5250 0.0025 0.0000

# 4 texture coords



g shadow

usemtl wire_166229229

s 1

f 136/279/126 137/280/126 138/281/126

f 138/281/126 139/282/126 136/279/126

# 2 faces



