# File Created: 07.07.2013 17:12:44

mtllib Shades of Sage.mtl

#
# object Shades_of_Sage
#

v  -30.5820 -0.0461 -0.0100
v  30.6789 -0.0461 -0.0100
v  30.6789 61.0442 -0.0099
v  -30.5820 61.0442 -0.0100
v  30.6789 61.0442 -1.6299
v  30.6789 -0.0461 -1.6300
v  -30.5820 -0.0461 -1.6300
v  -30.5820 61.0442 -1.6299
# 8 vertices

vn -0.0000 -0.0000 1.0000
vn 0.0000 0.0000 -1.0000
vn -0.0000 1.0000 0.0000
vn -1.0000 -0.0000 -0.0000
vn 0.0000 -1.0000 -0.0000
vn 1.0000 0.0000 0.0000
# 6 vertex normals

vt 0.7775 0.4971 0.0000
vt 0.4364 0.4971 0.0000
vt 0.4364 0.0025 0.0000
vt 0.7775 0.0025 0.0000
vt 0.4364 0.9975 0.0000
vt 0.4364 0.5029 0.0000
vt 0.7775 0.5029 0.0000
vt 0.7775 0.9975 0.0000
vt 0.8026 0.0025 0.0000
vt 0.8026 0.3436 0.0000
vt 0.7950 0.3436 0.0000
vt 0.7950 0.0025 0.0000
vt 0.7910 0.0025 0.0000
vt 0.7910 0.4971 0.0000
vt 0.7834 0.4971 0.0000
vt 0.7834 0.0025 0.0000
vt 0.0101 0.6308 0.0000
vt 0.0101 0.9719 0.0000
vt 0.0025 0.9719 0.0000
vt 0.0025 0.6308 0.0000
vt 0.7910 0.5029 0.0000
vt 0.7910 0.9975 0.0000
vt 0.7834 0.9975 0.0000
vt 0.7834 0.5029 0.0000
# 24 texture coords

g Shades_of_Sage
usemtl wire_177088027
s 1
f 1/1/1 2/2/1 3/3/1
f 3/3/1 4/4/1 1/1/1
f 5/5/2 6/6/2 7/7/2
f 7/7/2 8/8/2 5/5/2
s 2
f 5/9/3 8/10/3 4/11/3
f 4/11/3 3/12/3 5/9/3
s 4
f 8/13/4 7/14/4 1/15/4
f 1/15/4 4/16/4 8/13/4
s 2
f 7/17/5 6/18/5 2/19/5
f 2/19/5 1/20/5 7/17/5
s 4
f 6/21/6 5/22/6 3/23/6
f 3/23/6 2/24/6 6/21/6
# 12 faces

#
# object shadow
#

v  -38.6665 -7.3194 -1.7100
v  38.2178 -7.3194 -1.7100
v  38.2178 69.5648 -1.7100
v  -38.6665 69.5648 -1.7100
# 4 vertices

vn 0.0000 -0.0000 1.0000
# 1 vertex normals

vt 0.4306 0.6249 0.0000
vt 0.0025 0.6249 0.0000
vt 0.0025 0.0025 0.0000
vt 0.4306 0.0025 0.0000
# 4 texture coords

g shadow
usemtl wire_177088027
s 1
f 9/25/7 10/26/7 11/27/7
f 11/27/7 12/28/7 9/25/7
# 2 faces

