# File Created: 03.12.2012 16:22:10

mtllib 736.mtl

#
# object chair
#

#
# object Box2442
#

v  -9.4922 0.5872 -2.1972
v  2.3998 25.0776 -26.8059
v  -16.8864 24.7201 -26.2497
v  -11.3668 12.8036 -4.0552
v  -14.4134 6.7286 -2.0652
v  -15.5592 12.2850 -7.2558
v  12.3246 25.7764 -17.7863
v  16.3802 22.6351 -14.6533
v  2.3773 24.8842 -13.4794
v  22.1344 11.6235 -13.5751
v  22.7731 23.2358 -25.1986
v  20.5352 12.0070 -7.3709
v  19.3371 6.4687 -2.1729
v  16.3718 12.5899 -4.1437
v  12.3873 6.5662 -0.3545
v  2.1100 7.2159 0.0696
v  2.2091 12.6397 -1.0300
v  -2.3287 26.9791 -22.6101
v  -11.5356 26.5972 -23.0096
v  -2.8095 22.8986 -11.5615
v  -2.8638 16.8311 -4.2939
v  -7.3797 17.9519 -6.5390
v  12.5218 11.9012 -1.9777
v  7.9233 22.8159 -11.5957
v  -17.2036 11.9265 -13.4497
v  -17.7376 23.5478 -25.0693
v  -16.4064 17.0363 -13.5866
v  -11.2876 22.8481 -14.5650
v  -7.2042 25.9268 -17.7240
v  21.6684 19.7555 -16.4155
v  20.8630 20.6762 -15.5358
v  19.6645 25.0981 -20.5535
v  21.9326 24.4212 -26.3735
v  21.9779 23.9836 -22.0369
v  -15.8056 20.9586 -15.4189
v  -16.9108 24.2831 -21.9128
v  -14.5711 25.3618 -20.4443
v  16.4007 2.6854 -1.0580
v  2.1502 4.2182 -0.2893
v  21.3985 4.2966 -2.7937
v  -16.5120 4.5886 -2.6727
v  14.3212 0.4038 -2.2732
v  2.4450 26.1234 -15.5329
v  2.5531 27.7883 -21.0107
v  22.1181 1.0089 -2.9654
v  19.3509 5.0093 -1.3145
v  21.2501 2.3563 -1.6087
v  19.3530 2.3552 -0.7823
v  7.9305 16.7480 -4.3283
v  -7.5141 12.0555 -1.9138
v  -7.4515 6.7190 -0.2912
v  -14.4838 2.6158 -0.6744
v  -16.3198 0.2885 -1.8243
v  -16.3859 2.6461 -1.4886
v  16.6321 26.3803 -23.0994
v  7.4349 26.9039 -22.6412
v  -13.8145 19.0911 -11.6565
v  22.0050 24.6413 -23.3663
v  19.9805 25.7401 -23.7051
v  -14.8972 26.0087 -23.5939
v  -16.9363 24.9412 -23.2421
v  21.1456 -0.0000 -1.9438
v  21.4150 16.7450 -13.7072
v  -14.4442 5.2695 -1.2067
v  -11.5286 2.9005 -0.9689
v  18.8675 18.8394 -11.7608
v  12.4487 17.7992 -6.6022
v  -17.2832 1.3123 -2.8397
v  -2.8803 13.9958 -2.0363
v  7.9177 13.9126 -2.0707
# 70 vertices

vn -0.0018 -0.7060 -0.7083
vn -0.3500 0.5671 0.7489
vn -0.3928 0.4902 0.7816
vn -0.6484 0.4968 0.5831
vn 0.1194 0.9087 0.3984
vn 0.2446 0.7803 0.5728
vn 0.0019 0.7935 0.6086
vn -0.0020 -0.7062 -0.7081
vn 0.6548 0.4822 0.5757
vn 0.3971 0.4813 0.7780
vn 0.3545 0.5598 0.7458
vn 0.0887 0.1163 0.9887
vn -0.0018 0.0726 0.9974
vn -0.0003 0.4200 0.9076
vn 0.0029 0.9099 -0.4149
vn -0.0649 0.9815 -0.1811
vn -0.0817 0.9933 -0.0851
vn -0.0882 0.7955 0.6006
vn -0.0756 0.6880 0.7226
vn -0.2103 0.7010 0.6837
vn 0.1838 0.4560 0.8693
vn 0.0979 0.8143 0.5711
vn -0.9526 0.2077 0.2315
vn -0.8769 0.4727 0.1088
vn -0.8984 0.2906 0.3379
vn -0.2431 0.7833 0.5751
vn -0.1183 0.9161 0.3850
vn 0.8777 0.3080 0.3585
vn 0.8841 0.4543 0.0874
vn 0.9571 0.1786 0.2189
vn 0.5842 0.5990 0.5415
vn 0.3202 0.8539 0.4058
vn -0.0024 -0.7058 -0.7085
vn 0.7552 0.5396 0.3631
vn -0.6323 0.5828 0.5173
vn -0.7563 0.5407 0.3773
vn -0.3131 0.8592 0.4092
vn -0.4463 0.8782 -0.1776
vn -0.0132 -0.1881 0.9822
vn -0.0017 -0.2649 0.9643
vn 0.7652 0.3583 0.5280
vn -0.7594 0.3765 0.5375
vn -0.0233 -0.4410 0.8974
vn 0.0196 -0.4413 0.8971
vn 0.0022 0.8999 0.4361
vn 0.0038 0.9995 -0.0315
vn -0.0021 -0.7072 -0.7071
vn 0.2813 0.3522 0.8905
vn 0.5973 0.1209 0.7887
vn 0.0834 -0.0898 0.9920
vn 0.0799 0.6865 0.7220
vn -0.1824 0.4605 0.8703
vn -0.0904 0.1187 0.9895
vn -0.0850 -0.0881 0.9930
vn -0.3808 -0.2349 0.8964
vn -0.5951 0.1356 0.7963
vn 0.0886 0.9920 -0.0866
vn 0.4537 0.8704 -0.1859
vn 0.0717 0.9804 -0.1826
vn -0.3972 0.6601 0.6417
vn 0.6661 0.7237 0.1654
vn 0.2245 0.9729 -0.0388
vn -0.2168 0.9764 -0.0357
vn -0.6569 0.7369 0.1748
vn -0.0026 -0.7062 -0.7081
vn 0.3764 -0.2457 0.8913
vn 0.8403 0.0831 0.5297
vn 0.8918 0.2684 0.3558
vn -0.2784 0.3582 0.8934
vn 0.0109 -0.1884 0.9820
vn 0.4030 0.6522 0.6379
vn 0.2151 0.6971 0.6818
vn -0.0015 -0.7059 -0.7083
vn -0.8378 0.1048 0.5416
vn -0.0020 -0.7067 -0.7076
vn -0.0906 0.5103 0.8561
vn 0.0915 0.5014 0.8596
vn -0.0021 -0.7059 -0.7084
vn -0.0019 -0.7059 -0.7084
vn -0.0022 -0.7067 -0.7076
# 80 vertex normals

vt 0.1056 0.4890 0.0000
vt 0.2503 0.8253 0.0000
vt 0.0203 0.8206 0.0000
vt 0.9259 0.5787 0.0000
vt 0.9624 0.5228 0.0000
vt 0.9755 0.5968 0.0000
vt 0.6418 0.7601 0.0000
vt 0.5938 0.7167 0.0000
vt 0.7609 0.7258 0.0000
vt 0.4841 0.6403 0.0000
vt 0.4931 0.7999 0.0000
vt 0.5451 0.5927 0.0000
vt 0.5600 0.5190 0.0000
vt 0.5951 0.5755 0.0000
vt 0.6431 0.5081 0.0000
vt 0.7657 0.5106 0.0000
vt 0.7644 0.5562 0.0000
vt 0.2429 0.9134 0.0000
vt 0.2998 0.8742 0.0000
vt 0.4095 0.8805 0.0000
vt 0.8230 0.6994 0.0000
vt 0.8245 0.6080 0.0000
vt 0.8780 0.6313 0.0000
vt 0.6413 0.5565 0.0000
vt 0.6950 0.6982 0.0000
vt 0.8154 0.0540 0.0000
vt 0.6557 0.0581 0.0000
vt 0.7785 0.0226 0.0000
vt 0.9237 0.7198 0.0000
vt 0.8746 0.7623 0.0000
vt 0.2322 0.9506 0.0000
vt 0.3153 0.9868 0.0000
vt 0.1558 0.9829 0.0000
vt 0.5402 0.7084 0.0000
vt 0.5539 0.7732 0.0000
vt 0.4832 0.8162 0.0000
vt 0.5261 0.7751 0.0000
vt 0.9775 0.7126 0.0000
vt 0.9899 0.7795 0.0000
vt 0.9621 0.7771 0.0000
vt 0.4729 0.9146 0.0000
vt 0.8686 0.8409 0.0000
vt 0.9165 0.8694 0.0000
vt 0.7465 0.8566 0.0000
vt 0.5353 0.5076 0.0000
vt 0.9392 0.0285 0.0000
vt 0.8919 0.8922 0.0000
vt 0.6079 0.8937 0.0000
vt 0.7598 0.7483 0.0000
vt 0.7579 0.7966 0.0000
vt 0.3896 0.4863 0.0000
vt 0.4826 0.4945 0.0000
vt 0.5599 0.5029 0.0000
vt 0.5372 0.4860 0.0000
vt 0.5599 0.4807 0.0000
vt 0.6958 0.6068 0.0000
vt 0.8802 0.5588 0.0000
vt 0.8796 0.5103 0.0000
vt 0.5482 0.8715 0.0000
vt 0.5265 0.8941 0.0000
vt 0.5256 0.8770 0.0000
vt 0.0736 0.8787 0.0000
vt 0.0100 0.9120 0.0000
vt 0.1833 0.8736 0.0000
vt 0.9542 0.6741 0.0000
vt 0.2995 0.9612 0.0000
vt 0.5440 0.8626 0.0000
vt 0.5477 0.8364 0.0000
vt 0.5723 0.8625 0.0000
vt 0.6717 0.0323 0.0000
vt 0.5537 0.9221 0.0000
vt 0.5259 0.9451 0.0000
vt 0.5256 0.9185 0.0000
vt 0.0100 0.8045 0.0000
vt 0.0150 0.6448 0.0000
vt 0.9555 0.8425 0.0000
vt 0.9744 0.8543 0.0000
vt 0.9551 0.8606 0.0000
vt 0.0321 0.9575 0.0000
vt 0.1928 0.9516 0.0000
vt 0.9629 0.5068 0.0000
vt 0.9281 0.4883 0.0000
vt 0.7460 0.8354 0.0000
vt 0.9256 0.8027 0.0000
vt 0.8159 0.8020 0.0000
vt 0.9900 0.7931 0.0000
vt 0.9656 0.8028 0.0000
vt 0.6995 0.8009 0.0000
vt 0.5898 0.7995 0.0000
vt 0.5498 0.7988 0.0000
vt 0.5256 0.7886 0.0000
vt 0.5644 0.6703 0.0000
vt 0.2328 0.9390 0.0000
vt 0.7386 0.0100 0.0000
vt 0.9874 0.5120 0.0000
vt 0.9634 0.4845 0.0000
vt 0.9860 0.4903 0.0000
vt 0.6416 0.6290 0.0000
vt 0.9517 0.8693 0.0000
vt 0.9744 0.8745 0.0000
vt 0.9732 0.8916 0.0000
vt 0.3131 0.9659 0.0000
vt 0.3316 0.9873 0.0000
vt 0.6396 0.0584 0.0000
vt 0.6581 0.0370 0.0000
vt 0.1171 0.9395 0.0000
vt 0.8544 0.0104 0.0000
vt 0.5951 0.4851 0.0000
vt 0.6396 0.0828 0.0000
vt 0.6600 0.0830 0.0000
vt 0.6455 0.0999 0.0000
vt 0.0128 0.4990 0.0000
vt 0.0242 0.4849 0.0000
vt 0.8249 0.5729 0.0000
vt 0.6962 0.5717 0.0000
vt 0.0100 0.9793 0.0000
vt 0.0105 0.9619 0.0000
vt 0.9608 0.0329 0.0000
vt 0.9611 0.0504 0.0000
vt 0.5835 0.8713 0.0000
vt 0.4709 0.4807 0.0000
vt 0.2417 0.8578 0.0000
vt 0.6320 0.8422 0.0000
vt 0.0336 0.8863 0.0000
vt 0.4495 0.8886 0.0000
# 125 texture coords

g Box2442
usemtl 05___Default
f 3/3/1 2/2/1 1/1/1
f 6/6/4 5/5/3 4/4/2
f 9/9/7 8/8/6 7/7/5
f 11/11/8 10/10/8 1/1/8
f 14/14/11 13/13/10 12/12/9
f 17/17/14 16/16/13 15/15/12
f 19/20/17 18/19/16 2/18/15
f 22/23/20 21/22/19 20/21/18
f 15/15/12 23/24/21 17/17/14
f 20/21/18 21/22/19 24/25/22
f 27/28/25 26/27/24 25/26/23
f 29/30/27 28/29/26 20/21/18
f 10/33/30 11/32/29 30/31/28
f 32/35/32 8/8/6 31/34/31
f 1/1/33 2/2/33 33/36/33
f 31/34/31 34/37/34 32/35/32
f 37/40/37 36/39/36 35/38/35
f 19/20/17 2/18/15 3/41/38
f 39/44/40 38/43/39 15/42/12
f 13/13/10 40/45/41 12/12/9
f 41/46/42 27/28/25 25/26/23
f 39/44/40 1/48/44 42/47/43
f 7/7/5 44/50/46 43/49/45
f 43/49/45 44/50/46 29/30/27
f 45/52/47 42/51/47 1/1/47
f 48/55/50 47/54/49 46/53/48
f 49/56/51 24/25/22 21/22/19
f 13/13/10 14/14/11 23/24/21
f 5/5/3 51/58/53 50/57/52
f 54/61/56 53/60/55 52/59/54
f 33/63/58 2/18/15 55/62/57
f 2/18/15 56/64/59 55/62/57
f 35/38/35 28/29/26 37/40/37
f 22/23/20 57/65/60 4/4/2
f 11/32/29 34/66/34 30/31/28
f 33/69/58 59/68/62 58/67/61
f 27/28/25 36/70/36 26/27/24
f 61/73/64 60/72/63 3/71/38
f 21/22/19 22/23/20 50/57/52
f 17/17/14 50/57/52 51/58/53
f 53/60/55 1/48/44 52/59/54
f 1/1/65 25/75/65 26/74/65
f 45/78/67 47/77/49 62/76/66
f 10/33/30 63/80/68 40/79/41
f 65/82/70 51/58/53 64/81/69
f 15/42/12 16/83/13 39/44/40
f 29/30/27 18/85/16 19/84/17
f 60/87/63 61/86/64 37/40/37
f 55/89/57 56/88/59 7/7/5
f 58/91/61 59/90/62 32/35/32
f 14/14/11 12/12/9 66/92/71
f 34/66/34 31/93/31 30/31/28
f 27/28/25 35/94/35 36/70/36
f 57/65/60 6/6/4 4/4/2
f 6/6/4 41/95/42 5/5/3
f 64/81/69 54/97/56 52/96/54
f 24/25/22 49/56/51 67/98/72
f 67/98/72 66/92/71 8/8/6
f 62/101/66 47/100/49 48/99/50
f 38/43/39 39/44/40 42/47/43
f 11/32/29 33/103/58 58/102/61
f 11/11/33 1/1/33 33/36/33
f 3/3/73 1/1/73 26/74/73
f 61/105/64 3/104/38 26/27/24
f 12/106/9 40/79/41 63/80/68
f 31/93/31 12/106/9 63/80/68
f 27/28/25 6/107/4 35/94/35
f 27/28/25 41/46/42 6/107/4
f 23/24/21 15/15/12 13/13/10
f 46/53/48 15/15/12 38/108/39
f 53/111/55 54/110/56 68/109/74
f 1/1/75 53/113/75 68/112/75
f 70/115/77 69/114/76 17/17/14
f 69/114/76 50/57/52 17/17/14
f 47/54/49 40/45/41 46/53/48
f 40/79/41 47/117/49 45/116/67
f 68/119/74 54/118/56 41/46/42
f 64/81/69 41/95/42 54/97/56
f 20/21/18 43/49/45 29/30/27
f 24/25/22 9/9/7 20/21/18
f 50/57/52 4/4/2 5/5/3
f 50/57/52 22/23/20 4/4/2
f 29/30/27 37/40/37 28/29/26
f 19/84/17 37/40/37 29/30/27
f 14/14/11 66/92/71 67/98/72
f 14/14/11 67/98/72 23/24/21
f 17/17/14 23/24/21 70/115/77
f 23/24/21 67/98/72 49/56/51
f 67/98/72 8/8/6 24/25/22
f 8/8/6 9/9/7 24/25/22
f 66/92/71 12/12/9 31/34/31
f 8/8/6 66/92/71 31/34/31
f 35/38/35 6/6/4 57/65/60
f 35/38/35 57/65/60 28/29/26
f 64/81/69 52/96/54 65/82/70
f 1/48/44 65/120/70 52/59/54
f 28/29/26 57/65/60 22/23/20
f 20/21/18 28/29/26 22/23/20
f 7/7/5 32/35/32 55/89/57
f 8/8/6 32/35/32 7/7/5
f 10/10/78 45/52/78 1/1/78
f 40/79/41 45/116/67 10/33/30
f 68/119/74 41/46/42 25/26/23
f 1/1/79 68/112/79 25/75/79
f 45/52/80 62/121/80 42/51/80
f 42/47/43 62/101/66 48/99/50
f 49/56/51 21/22/19 69/114/76
f 50/57/52 69/114/76 21/22/19
f 18/85/16 29/30/27 44/50/46
f 18/19/16 44/122/46 2/18/15
f 48/99/50 38/43/39 42/47/43
f 38/108/39 48/55/50 46/53/48
f 51/58/53 16/16/13 17/17/14
f 39/44/40 16/83/13 51/123/53
f 51/123/53 65/120/70 39/44/40
f 1/48/44 39/44/40 65/120/70
f 7/7/5 43/49/45 9/9/7
f 43/49/45 20/21/18 9/9/7
f 34/37/34 58/91/61 32/35/32
f 58/102/61 34/66/34 11/32/29
f 26/27/24 36/70/36 61/105/64
f 61/86/64 36/39/36 37/40/37
f 44/50/46 7/7/5 56/88/59
f 2/18/15 44/122/46 56/64/59
f 69/114/76 70/115/77 49/56/51
f 49/56/51 70/115/77 23/24/21
f 33/63/58 55/62/57 59/124/62
f 32/35/32 59/90/62 55/89/57
f 19/84/17 60/87/63 37/40/37
f 60/125/63 19/20/17 3/41/38
f 15/15/12 46/53/48 13/13/10
f 46/53/48 40/45/41 13/13/10
f 64/81/69 51/58/53 5/5/3
f 41/95/42 64/81/69 5/5/3
f 63/80/68 30/31/28 31/93/31
f 10/33/30 30/31/28 63/80/68
# 136 faces

#
# object shadow
#

v  27.0112 28.0574 -29.9923
v  27.0112 -3.5354 1.6006
v  -22.7438 -3.5354 1.6006
v  -22.7438 28.0574 -29.9922
# 4 vertices

vn -0.0038 0.7061 0.7083
# 1 vertex normals

vt 0.0100 0.4440 0.0000
vt 0.0137 0.0100 0.0000
vt 0.6070 0.0141 0.0000
vt 0.6033 0.4481 0.0000
# 4 texture coords

g shadow
usemtl 05___Default
f 73/128/81 72/127/81 71/126/81
f 71/126/81 74/129/81 73/128/81
# 2 faces

