
# File Created: 28.01.2013 19:15:53



mtllib 1129.mtl



#

# object Object008

#



v  -6.8969 8.6190 19.2239

v  -18.4113 8.6191 -0.6558

v  8.3395 8.6191 -16.1501

v  19.8540 8.6190 3.7296

v  -18.8944 8.8738 -1.4898

v  7.8565 8.8738 -16.9841

v  -19.2358 9.5279 -2.0793

v  7.5150 9.5279 -17.5736

v  -19.3629 10.4418 -2.2987

v  7.3880 10.4418 -17.7929

v  -19.3627 10.4783 -2.2984

v  7.3881 10.4783 -17.7927

v  -19.2275 11.3881 -2.0649

v  7.5234 11.3881 -17.5592

v  -18.8802 12.0312 -1.4653

v  7.8707 12.0312 -16.9596

v  -18.3949 12.2705 -0.6275

v  8.3559 12.2705 -16.1218

v  -6.8805 12.2705 19.2522

v  19.8704 12.2705 3.7579

v  -3.1003 4.9273 19.8038

v  -17.8919 4.9274 2.2256

v  5.7620 4.9274 -17.6785

v  20.5536 4.9273 -0.1003

v  -18.5125 5.1820 1.4882

v  5.1414 5.1820 -18.4159

v  -18.9511 5.8362 0.9669

v  4.7028 5.8362 -18.9372

v  -19.1143 6.7501 0.7729

v  4.5396 6.7501 -19.1312

v  -19.1141 6.7866 0.7732

v  4.5398 6.7866 -19.1309

v  -18.9404 7.6964 0.9796

v  4.7135 7.6964 -18.9245

v  -18.4942 8.3395 1.5098

v  5.1597 8.3395 -18.3943

v  -17.8709 8.5788 2.2507

v  5.7830 8.5788 -17.6535

v  -3.0793 8.5787 19.8289

v  20.5746 8.5787 -0.0753

v  -17.9255 0.1276 -6.4694

v  -18.0941 0.4613 -7.4183

v  12.3428 0.4613 -12.8288

v  12.5115 0.1276 -11.8799

v  -18.2134 1.3181 -8.0891

v  12.2236 1.3181 -13.4996

v  -18.2578 2.5154 -8.3386

v  12.1792 2.5154 -13.7491

v  -18.2577 2.5632 -8.3383

v  12.1793 2.5632 -13.7488

v  -18.2105 3.7549 -8.0727

v  12.2265 3.7550 -13.4832

v  -18.0892 4.5974 -7.3904

v  12.3477 4.5975 -12.8010

v  -17.9197 4.9109 -6.4372

v  12.5172 4.9109 -11.8477

v  -13.8990 4.9108 16.1818

v  16.5380 4.9108 10.7713

v  -17.9269 3.6669 -7.8074

v  -17.9720 2.5608 -8.0544

v  -17.9720 2.5163 -8.0547

v  -13.8639 0.3000 15.8963

v  -13.8585 4.7398 15.9262

v  -17.6498 4.7399 -6.2868

v  -17.6552 0.3000 -6.3167

v  -17.8113 4.4489 -7.1731

v  -17.8160 0.6097 -7.1990

v  -17.9297 1.4051 -7.8226

v  11.9457 2.5154 -13.7076

v  11.9457 2.5632 -13.7073

v  11.9930 3.7550 -13.4417

v  12.1142 4.5975 -12.7594

v  12.2837 4.9109 -11.8062

v  16.3045 4.9108 10.8128

v  16.2988 0.1276 10.7806

v  12.2780 0.1276 -11.8384

v  12.1093 0.4613 -12.7873

v  11.9901 1.3181 -13.4581

v  -13.9047 0.1276 16.1496

v  16.2901 0.1276 10.7391

v  16.2958 4.9108 10.7713

v  -13.8640 0.1338 16.3294

v  16.2900 -0.0387 11.1722

v  -18.7833 11.3881 -2.3048

v  -18.9186 10.4784 -2.5383

v  -18.9187 10.4418 -2.5385

v  -6.6225 8.6191 18.7279

v  -6.6060 12.2705 18.7562

v  -17.9508 12.2705 -0.8674

v  -17.9671 8.6191 -0.8957

v  -18.4360 12.0313 -1.7052

v  -18.4502 8.8738 -1.7296

v  -18.7917 9.5279 -2.3192

v  7.2167 10.4418 -17.6911

v  7.2168 10.4783 -17.6909

v  7.3520 11.3881 -17.4574

v  7.6993 12.0313 -16.8578

v  8.1846 12.2705 -16.0199

v  19.1325 12.2705 3.5988

v  19.1162 8.6191 3.5705

v  8.1682 8.6191 -16.0483

v  7.6852 8.8738 -16.8822

v  7.3437 9.5279 -17.4718

v  -18.7808 7.6964 0.8383

v  -18.9545 6.7866 0.6319

v  -18.9547 6.7501 0.6316

v  -2.9812 4.9273 19.3135

v  -2.9601 8.5787 19.3386

v  -17.7113 8.5788 2.1093

v  -17.7323 4.9274 2.0843

v  -18.3347 8.3395 1.3685

v  -18.3529 5.1820 1.3469

v  -18.7915 5.8362 0.8255

v  4.4390 6.7501 -19.0159

v  4.4393 6.7866 -19.0156

v  4.6130 7.6964 -18.8092

v  5.0591 8.3395 -18.2790

v  5.6825 8.5788 -17.5381

v  20.3015 8.5787 -0.0325

v  20.2805 4.9273 -0.0576

v  5.6614 4.9274 -17.5632

v  5.0409 5.1820 -18.3006

v  4.6022 5.8362 -18.8219

# 123 vertices



vn -0.0000 -1.0000 -0.0000

vn -0.1640 -0.9450 -0.2831

vn -0.2896 -0.8161 -0.5001

vn -0.4534 -0.4261 -0.7828

vn -0.4987 -0.1008 -0.8609

vn -0.4979 0.1144 -0.8596

vn -0.4501 0.4399 -0.7771

vn -0.2821 0.8266 -0.4870

vn -0.1544 0.9514 -0.2665

vn 0.0000 1.0000 0.0000

vn -0.2106 -0.9450 -0.2503

vn -0.3721 -0.8161 -0.4422

vn -0.5825 -0.4261 -0.6922

vn -0.6406 -0.1007 -0.7613

vn -0.6406 -0.1008 -0.7613

vn -0.6396 0.1145 -0.7601

vn -0.5782 0.4399 -0.6871

vn -0.3624 0.8266 -0.4306

vn -0.1983 0.9514 -0.2357

vn -0.0723 -0.9107 -0.4066

vn -0.1161 -0.7482 -0.6533

vn -0.1642 -0.3456 -0.9239

vn -0.1745 -0.0775 -0.9816

vn -0.1743 0.0880 -0.9807

vn -0.1634 0.3578 -0.9194

vn -0.1135 0.7612 -0.6385

vn -0.0683 0.9206 -0.3844

vn -0.9838 -0.0000 0.1793

vn -0.9836 -0.0002 0.1804

vn -0.9838 -0.0000 0.1794

vn -0.9857 0.0001 0.1682

vn -0.9849 0.0000 0.1730

vn -0.9849 0.0000 0.1729

vn 0.9846 0.0000 -0.1750

vn 0.9846 -0.0001 -0.1746

vn -0.7020 -0.0988 0.7053

vn -0.7009 -0.0986 0.7064

vn -0.7049 -0.0029 0.7093

vn -0.7049 -0.0030 0.7093

vn -0.7011 0.0927 0.7070

vn -0.7021 0.0921 0.7061

vn -0.7117 0.3031 0.6338

vn -0.7142 0.3005 0.6321

vn -0.7102 0.5830 0.3947

vn -0.7150 0.5766 0.3954

vn -0.9222 0.3503 0.1639

vn -0.6745 0.7293 0.1151

vn -0.6726 -0.7303 0.1196

vn -0.9244 -0.3471 0.1578

vn -0.7114 -0.5906 0.3809

vn -0.7069 -0.5939 0.3842

vn -0.7137 -0.3099 0.6282

vn -0.7109 -0.3105 0.6310

vn 0.1685 -0.0052 0.9857

vn 0.0087 1.0000 -0.0014

vn -0.9788 -0.0002 0.2046

vn -0.9789 -0.0002 0.2046

vn -0.0116 -0.9999 0.0021

vn 0.0723 0.9107 0.4066

vn 0.1496 0.5189 0.8417

vn 0.1728 0.1596 0.9720

vn 0.1750 -0.0052 0.9846

vn 0.1725 -0.1703 0.9702

vn 0.1482 -0.5317 0.8338

vn 0.0683 -0.9206 0.3844

vn 0.0832 0.8903 0.4477

vn -0.8653 -0.0000 0.5012

vn -0.8650 -0.0002 0.5019

vn -0.8653 -0.0000 0.5013

vn -0.8657 0.0000 0.5005

vn -0.8656 0.0000 0.5008

vn 0.8653 -0.0000 -0.5012

vn 0.8657 -0.0002 -0.5006

vn 0.8653 0.0000 -0.5012

vn 0.8698 -0.0001 -0.4935

vn 0.8732 -0.0001 -0.4873

vn -0.5074 0.0068 -0.8617

vn -0.7651 -0.0000 0.6439

vn -0.7654 0.0001 0.6435

vn -0.7652 0.0000 0.6438

vn -0.7596 -0.0001 0.6504

vn -0.7621 -0.0000 0.6475

vn -0.7651 0.0000 0.6439

vn -0.7652 -0.0000 0.6438

vn 0.7652 -0.0000 -0.6438

vn 0.7655 -0.0001 -0.6435

vn 0.7651 0.0000 -0.6439

vn 0.7665 -0.0000 -0.6423

vn 0.7676 -0.0000 -0.6410

vn 0.7652 0.0000 -0.6438

vn -0.6399 0.0068 -0.7684

# 91 vertex normals



vt 0.8501 0.2352 0.0000

vt 0.6912 0.2411 0.0000

vt 0.6832 0.0273 0.0000

vt 0.8421 0.0214 0.0000

vt 0.7083 0.6354 0.0000

vt 0.7015 0.6354 0.0000

vt 0.7015 0.4153 0.0000

vt 0.7083 0.4153 0.0000

vt 0.6388 0.6391 0.0000

vt 0.6325 0.6391 0.0000

vt 0.6325 0.4116 0.0000

vt 0.6388 0.4116 0.0000

vt 0.6237 0.6391 0.0000

vt 0.6237 0.4116 0.0000

vt 0.6233 0.6391 0.0000

vt 0.6233 0.4116 0.0000

vt 0.6145 0.6391 0.0000

vt 0.6145 0.4116 0.0000

vt 0.6083 0.6391 0.0000

vt 0.6083 0.4116 0.0000

vt 0.6841 0.6323 0.0000

vt 0.6770 0.6323 0.0000

vt 0.6770 0.4184 0.0000

vt 0.6841 0.4184 0.0000

vt 0.5898 0.6323 0.0000

vt 0.4308 0.6323 0.0000

vt 0.4308 0.4184 0.0000

vt 0.5898 0.4184 0.0000

vt 0.6448 0.2427 0.0000

vt 0.4861 0.2336 0.0000

vt 0.4983 0.0200 0.0000

vt 0.6570 0.0291 0.0000

vt 0.6813 0.9183 0.0000

vt 0.6744 0.9187 0.0000

vt 0.6615 0.6989 0.0000

vt 0.6683 0.6985 0.0000

vt 0.6569 0.9235 0.0000

vt 0.6506 0.9249 0.0000

vt 0.6334 0.6997 0.0000

vt 0.6396 0.6983 0.0000

vt 0.6418 0.9259 0.0000

vt 0.6245 0.7007 0.0000

vt 0.6415 0.9259 0.0000

vt 0.6242 0.7007 0.0000

vt 0.6326 0.9262 0.0000

vt 0.6153 0.7010 0.0000

vt 0.6263 0.9258 0.0000

vt 0.6090 0.7006 0.0000

vt 0.6853 0.7002 0.0000

vt 0.6923 0.6998 0.0000

vt 0.7059 0.9133 0.0000

vt 0.6989 0.9137 0.0000

vt 0.5897 0.9220 0.0000

vt 0.4308 0.9186 0.0000

vt 0.4353 0.7047 0.0000

vt 0.5943 0.7081 0.0000

vt 0.9744 0.7126 0.0000

vt 0.9746 0.7196 0.0000

vt 0.7505 0.7272 0.0000

vt 0.7503 0.7202 0.0000

vt 0.9769 0.7351 0.0000

vt 0.9751 0.7435 0.0000

vt 0.7596 0.7435 0.0000

vt 0.7613 0.7351 0.0000

vt 0.9745 0.7551 0.0000

vt 0.7589 0.7551 0.0000

vt 0.9745 0.7556 0.0000

vt 0.7589 0.7556 0.0000

vt 0.9752 0.7672 0.0000

vt 0.7596 0.7672 0.0000

vt 0.9769 0.7753 0.0000

vt 0.7614 0.7753 0.0000

vt 0.7510 0.7061 0.0000

vt 0.7510 0.6991 0.0000

vt 0.9740 0.6983 0.0000

vt 0.9740 0.7053 0.0000

vt 0.0200 0.9644 0.0000

vt 0.0316 0.8058 0.0000

vt 0.2450 0.8214 0.0000

vt 0.2334 0.9800 0.0000

vt 0.1988 0.6656 0.0000

vt 0.2005 0.6759 0.0000

vt 0.2005 0.6763 0.0000

vt 0.0377 0.6971 0.0000

vt 0.0374 0.6555 0.0000

vt 0.1884 0.6555 0.0000

vt 0.1886 0.6971 0.0000

vt 0.1945 0.6582 0.0000

vt 0.1947 0.6942 0.0000

vt 0.1989 0.6867 0.0000

vt 0.2190 0.6747 0.0000

vt 0.2190 0.6743 0.0000

vt 0.2208 0.6631 0.0000

vt 0.2255 0.6553 0.0000

vt 0.2320 0.6523 0.0000

vt 0.3861 0.6523 0.0000

vt 0.3859 0.6971 0.0000

vt 0.2317 0.6971 0.0000

vt 0.2253 0.6939 0.0000

vt 0.2207 0.6859 0.0000

vt 0.6681 0.3138 0.0000

vt 0.6701 0.3260 0.0000

vt 0.6671 0.3261 0.0000

vt 0.6652 0.3147 0.0000

vt 0.6701 0.3265 0.0000

vt 0.6671 0.3265 0.0000

vt 0.6683 0.3389 0.0000

vt 0.6653 0.3380 0.0000

vt 0.6632 0.3477 0.0000

vt 0.6606 0.3462 0.0000

vt 0.6561 0.3511 0.0000

vt 0.6540 0.3494 0.0000

vt 0.4863 0.3511 0.0000

vt 0.4879 0.3494 0.0000

vt 0.4861 0.3019 0.0000

vt 0.6559 0.3019 0.0000

vt 0.6538 0.3036 0.0000

vt 0.4877 0.3036 0.0000

vt 0.6630 0.3051 0.0000

vt 0.6605 0.3066 0.0000

vt 0.3863 0.7598 0.0000

vt 0.1813 0.7614 0.0000

vt 0.1814 0.7166 0.0000

vt 0.3864 0.7182 0.0000

vt 0.3838 0.4116 0.0000

vt 0.2243 0.4170 0.0000

vt 0.2243 0.4153 0.0000

vt 0.3835 0.4116 0.0000

vt 0.1095 0.6323 0.0000

vt 0.1540 0.6321 0.0000

vt 0.1540 0.6323 0.0000

vt 0.1095 0.6326 0.0000

vt 0.1908 0.4150 0.0000

vt 0.0315 0.4172 0.0000

vt 0.0315 0.4156 0.0000

vt 0.1911 0.4150 0.0000

vt 0.0248 0.4172 0.0000

vt 0.0248 0.4156 0.0000

vt 0.1632 0.7589 0.0000

vt 0.1549 0.7607 0.0000

vt 0.1549 0.7590 0.0000

vt 0.1632 0.7573 0.0000

vt 0.1433 0.7613 0.0000

vt 0.1433 0.7596 0.0000

vt 0.1428 0.7613 0.0000

vt 0.1428 0.7596 0.0000

vt 0.1312 0.7606 0.0000

vt 0.1312 0.7590 0.0000

vt 0.1230 0.7589 0.0000

vt 0.1230 0.7572 0.0000

vt 0.2175 0.4155 0.0000

vt 0.2176 0.4172 0.0000

vt 0.6556 0.6324 0.0000

vt 0.6605 0.4207 0.0000

vt 0.6639 0.4203 0.0000

vt 0.6590 0.6319 0.0000

vt 0.3816 0.4994 0.0000

vt 0.3834 0.5077 0.0000

vt 0.3834 0.5080 0.0000

vt 0.2134 0.5245 0.0000

vt 0.2132 0.4914 0.0000

vt 0.3701 0.4914 0.0000

vt 0.3703 0.5245 0.0000

vt 0.3768 0.4936 0.0000

vt 0.3770 0.5222 0.0000

vt 0.3817 0.5163 0.0000

vt 0.2146 0.4542 0.0000

vt 0.2146 0.4538 0.0000

vt 0.2165 0.4456 0.0000

vt 0.2213 0.4398 0.0000

vt 0.2280 0.4376 0.0000

vt 0.3835 0.4376 0.0000

vt 0.3832 0.4707 0.0000

vt 0.2277 0.4707 0.0000

vt 0.2211 0.4684 0.0000

vt 0.2164 0.4625 0.0000

vt 0.3830 0.6322 0.0000

vt 0.1763 0.6322 0.0000

vt 0.1763 0.5991 0.0000

vt 0.3830 0.5991 0.0000

vt 0.1896 0.4455 0.0000

vt 0.1915 0.4538 0.0000

vt 0.1915 0.4542 0.0000

vt 0.0228 0.4708 0.0000

vt 0.0226 0.4374 0.0000

vt 0.1782 0.4374 0.0000

vt 0.1784 0.4708 0.0000

vt 0.1849 0.4396 0.0000

vt 0.1851 0.4685 0.0000

vt 0.1898 0.4625 0.0000

vt 0.0200 0.5080 0.0000

vt 0.0200 0.5077 0.0000

vt 0.0219 0.4994 0.0000

vt 0.0266 0.4935 0.0000

vt 0.0333 0.4913 0.0000

vt 0.1900 0.4913 0.0000

vt 0.1897 0.5246 0.0000

vt 0.0330 0.5246 0.0000

vt 0.0264 0.5223 0.0000

vt 0.0217 0.5163 0.0000

vt 0.3837 0.5785 0.0000

vt 0.1757 0.5785 0.0000

vt 0.1758 0.5451 0.0000

vt 0.3838 0.5451 0.0000

# 204 texture coords



g Object008

usemtl 18___Default

s 1

f 1/1/1 2/2/1 3/3/1

f 3/3/1 4/4/1 1/1/1

usemtl wire_153228184

f 2/5/2 5/6/3 6/7/3

f 6/7/3 3/8/2 2/5/2

f 5/9/3 7/10/4 8/11/4

f 8/11/4 6/12/3 5/9/3

f 7/10/4 9/13/5 10/14/5

f 10/14/5 8/11/4 7/10/4

f 9/13/5 11/15/6 12/16/6

f 12/16/6 10/14/5 9/13/5

f 11/15/6 13/17/7 14/18/7

f 14/18/7 12/16/6 11/15/6

f 13/17/7 15/19/8 16/20/8

f 16/20/8 14/18/7 13/17/7

f 15/21/8 17/22/9 18/23/9

f 18/23/9 16/24/8 15/21/8

f 17/25/10 19/26/10 20/27/10

f 20/27/10 18/28/10 17/25/10

usemtl 18___Default

f 21/29/1 22/30/1 23/31/1

f 23/31/1 24/32/1 21/29/1

usemtl wire_153228184

f 22/33/11 25/34/12 26/35/12

f 26/35/12 23/36/11 22/33/11

f 25/37/12 27/38/13 28/39/13

f 28/39/13 26/40/12 25/37/12

f 27/38/13 29/41/14 30/42/15

f 30/42/15 28/39/13 27/38/13

f 29/41/14 31/43/16 32/44/16

f 32/44/16 30/42/15 29/41/14

f 31/43/16 33/45/17 34/46/17

f 34/46/17 32/44/16 31/43/16

f 33/45/17 35/47/18 36/48/18

f 36/48/18 34/46/17 33/45/17

f 35/49/18 37/50/19 38/51/19

f 38/51/19 36/52/18 35/49/18

f 37/53/10 39/54/10 40/55/10

f 40/55/10 38/56/10 37/53/10

f 41/57/20 42/58/21 43/59/21

f 43/59/21 44/60/20 41/57/20

f 42/61/21 45/62/22 46/63/22

f 46/63/22 43/64/21 42/61/21

f 45/62/22 47/65/23 48/66/23

f 48/66/23 46/63/22 45/62/22

f 47/65/23 49/67/24 50/68/24

f 50/68/24 48/66/23 47/65/23

f 49/67/24 51/69/25 52/70/25

f 52/70/25 50/68/24 49/67/24

f 51/69/25 53/71/26 54/72/26

f 54/72/26 52/70/25 51/69/25

f 53/73/26 55/74/27 56/75/27

f 56/75/27 54/76/26 53/73/26

f 55/77/10 57/78/10 58/79/10

f 58/79/10 56/80/10 55/77/10

usemtl 22___Default

f 59/81/28 60/82/29 61/83/30

f 62/84/31 63/85/31 64/86/32

f 65/87/33 62/84/31 64/86/32

f 65/87/33 64/86/32 66/88/28

f 67/89/28 65/87/33 66/88/28

f 68/90/28 67/89/28 66/88/28

f 61/83/30 68/90/28 66/88/28

f 59/81/28 61/83/30 66/88/28

f 69/91/34 70/92/35 71/93/34

f 69/91/34 71/93/34 72/94/34

f 73/95/34 74/96/34 75/97/34

f 73/95/34 75/97/34 76/98/34

f 72/94/34 73/95/34 76/98/34

f 72/94/34 76/98/34 77/99/34

f 72/94/34 77/99/34 78/100/34

f 69/91/34 72/94/34 78/100/34

usemtl wire_153228184

s off

f 51/101/36 49/102/36 60/103/36

f 60/103/37 59/104/37 51/101/37

f 49/102/38 47/105/38 61/106/38

f 61/106/39 60/103/39 49/102/39

f 47/105/40 45/107/40 68/108/40

f 68/108/41 61/106/41 47/105/41

f 45/107/42 42/109/42 67/110/42

f 67/110/43 68/108/43 45/107/43

f 42/109/44 41/111/44 65/112/44

f 65/112/45 67/110/45 42/109/45

f 41/111/46 79/113/46 62/114/46

f 62/114/47 65/112/47 41/111/47

f 57/115/48 55/116/48 64/117/48

f 64/117/49 63/118/49 57/115/49

f 55/116/50 53/119/50 66/120/50

f 66/120/51 64/117/51 55/116/51

f 53/119/52 51/101/52 59/104/52

f 59/104/53 66/120/53 53/119/53

usemtl 22___Default

s 2

f 62/121/54 80/122/54 81/123/54

f 81/123/54 63/124/54 62/121/54

s off

f 74/125/1 73/126/1 56/127/1

f 56/127/55 81/128/55 74/125/55

f 81/129/56 80/130/56 75/131/56

f 75/131/57 74/132/57 81/129/57

f 80/133/10 44/134/10 76/135/10

f 76/135/58 75/136/58 80/133/58

f 44/134/59 43/137/59 77/138/59

f 77/138/59 76/135/59 44/134/59

f 43/139/60 46/140/60 78/141/60

f 78/141/60 77/142/60 43/139/60

f 46/140/61 48/143/61 69/144/61

f 69/144/61 78/141/61 46/140/61

f 48/143/62 50/145/62 70/146/62

f 70/146/62 69/144/62 48/143/62

f 50/145/63 52/147/63 71/148/63

f 71/148/63 70/146/63 50/145/63

f 52/147/64 54/149/64 72/150/64

f 72/150/64 71/148/64 52/147/64

f 54/151/65 56/127/65 73/126/65

f 73/126/65 72/152/65 54/151/65

usemtl wire_153228184

f 80/153/66 62/154/66 82/155/66

f 82/155/66 83/156/66 80/153/66

usemtl 22___Default

s 1

f 84/157/67 85/158/68 86/159/69

f 87/160/70 88/161/70 89/162/71

f 90/163/71 87/160/70 89/162/71

f 90/163/71 89/162/71 91/164/67

f 92/165/67 90/163/71 91/164/67

f 93/166/67 92/165/67 91/164/67

f 86/159/69 93/166/67 91/164/67

f 84/157/67 86/159/69 91/164/67

f 94/167/72 95/168/73 96/169/74

f 94/167/72 96/169/74 97/170/74

f 98/171/75 99/172/76 100/173/76

f 98/171/75 100/173/76 101/174/75

f 97/170/74 98/171/75 101/174/75

f 97/170/74 101/174/75 102/175/74

f 97/170/74 102/175/74 103/176/74

f 94/167/72 97/170/74 103/176/74

s 2

f 88/177/77 99/178/77 100/179/77

f 100/179/77 87/180/77 88/177/77

s 1

f 104/181/78 105/182/79 106/183/80

f 107/184/81 108/185/81 109/186/82

f 110/187/82 107/184/81 109/186/82

f 110/187/82 109/186/82 111/188/83

f 112/189/84 110/187/82 111/188/83

f 113/190/78 112/189/84 111/188/83

f 106/183/80 113/190/78 111/188/83

f 104/181/78 106/183/80 111/188/83

f 114/191/85 115/192/86 116/193/87

f 114/191/85 116/193/87 117/194/87

f 118/195/88 119/196/89 120/197/89

f 118/195/88 120/197/89 121/198/88

f 117/194/87 118/195/88 121/198/88

f 117/194/87 121/198/88 122/199/90

f 117/194/87 122/199/90 123/200/87

f 114/191/85 117/194/87 123/200/87

s 2

f 108/201/91 119/202/91 120/203/91

f 120/203/91 107/204/91 108/201/91

# 146 faces



#

# object shadow

#



v  24.3829 0.1276 -27.7319

v  -32.4465 0.1276 -17.6298

v  -24.3830 0.1276 27.7319

v  32.4465 0.1276 17.6298

# 4 vertices



vn -0.0000 1.0000 0.0000

# 1 vertex normals



vt 0.4184 0.3672 0.0000

vt 0.0200 0.3380 0.0000

vt 0.0433 0.0200 0.0000

vt 0.4417 0.0492 0.0000

# 4 texture coords



g shadow

usemtl wire_153228184

s 1

f 124/205/92 125/206/92 126/207/92

f 126/207/92 127/208/92 124/205/92

# 2 faces



