
# File Created: 23.06.2013 18:07:40



#

# object 8407

#



v  -2.8967 25.8553 8.9422

v  -2.8967 25.8554 -9.7961

v  -9.5613 0.9824 -9.7961

v  -9.5614 0.9824 8.9422

v  -2.6140 25.7796 9.9059

v  -9.2787 0.9067 9.9059

v  -1.8885 25.5852 10.5873

v  -8.5531 0.7123 10.5873

v  -6.4893 0.1593 10.5706

v  0.1754 25.0322 10.5706

v  0.8888 24.8410 9.8777

v  -5.7758 -0.0319 9.8777

v  1.1543 24.7699 8.9095

v  -5.5104 -0.1030 8.9095

v  1.1544 24.7699 -9.8289

v  -5.5103 -0.1030 -9.8289

v  1.0317 24.6992 8.8955

v  1.0400 24.7275 -9.7576

v  -2.8179 25.7608 -9.7260

v  -2.8260 25.7329 8.9273

v  -1.8773 25.4786 10.4870

v  0.1110 24.9459 10.4709

v  0.7773 24.7673 9.8237

v  -2.5553 25.6603 9.8504

v  -5.6064 -0.0773 -9.7576

v  -9.4642 0.9564 -9.7260

v  -5.6070 -0.0771 8.8955

v  -5.8614 -0.0090 9.8237

v  -6.5278 0.1696 10.4709

v  -8.5161 0.7023 10.4870

v  -9.1941 0.8840 9.8504

v  -9.4648 0.9565 8.9273

v  -9.4648 0.9565 -9.7965

v  -2.8001 25.8295 -9.7965

v  -2.8001 25.8295 8.9273

v  -2.5294 25.7569 9.8504

v  -1.8514 25.5752 10.4870

v  0.1368 25.0425 10.4709

v  0.8032 24.8639 9.8237

v  1.0576 24.7958 8.8955

v  1.0577 24.7958 -9.8285

v  -5.6070 -0.0771 -9.8285

v  1.2069 25.7503 8.1838

v  1.2069 25.7503 -10.5545

v  1.2069 0.0000 -10.5546

v  1.2069 0.0000 8.1838

v  1.4995 25.7503 9.1475

v  1.4995 0.0000 9.1475

v  2.2509 25.7503 9.8289

v  2.2509 0.0000 9.8288

v  4.3873 0.0000 9.8122

v  4.3873 25.7503 9.8122

v  5.1260 25.7503 9.1193

v  5.1260 0.0000 9.1192

v  5.4008 25.7503 8.1510

v  5.4008 0.0000 8.1510

v  5.4008 25.7503 -10.5873

v  5.4008 0.0000 -10.5873

v  5.3008 25.6503 8.1371

v  5.3014 25.6798 -10.5160

v  1.3076 25.6795 -10.4844

v  1.3070 25.6503 8.1689

v  2.2891 25.6503 9.7286

v  4.3474 25.6503 9.7125

v  5.0373 25.6503 9.0653

v  1.5872 25.6503 9.0920

v  5.3014 0.0000 -10.5160

v  1.3076 0.0000 -10.4844

v  5.3008 0.0000 8.1371

v  5.0373 0.0000 9.0653

v  4.3474 0.0000 9.7125

v  2.2891 0.0000 9.7285

v  1.5872 0.0000 9.0920

v  1.3070 0.0000 8.1689

v  1.3070 0.0000 -10.5549

v  1.3070 25.7503 -10.5549

v  1.3070 25.7503 8.1689

v  1.5872 25.7503 9.0920

v  2.2891 25.7503 9.7286

v  4.3474 25.7503 9.7125

v  5.0373 25.7503 9.0653

v  5.3008 25.7503 8.1371

v  5.3008 25.7503 -10.5869

v  5.3008 0.0000 -10.5869

v  5.3676 24.5644 6.0357

v  5.3676 24.5645 -10.3840

v  5.3676 0.0000 -10.3840

v  5.3676 -0.0000 6.0357

v  5.6602 24.5644 6.8803

v  5.6602 -0.0000 6.8802

v  6.4114 24.5644 7.4773

v  6.4114 0.0000 7.4773

v  8.5480 0.0000 7.4627

v  8.5480 24.5644 7.4627

v  9.2866 24.5644 6.8555

v  9.2866 -0.0000 6.8555

v  9.5614 24.5644 6.0071

v  9.5614 -0.0000 6.0071

v  9.5614 24.5645 -10.4127

v  9.5614 0.0000 -10.4127

v  9.4614 24.4693 5.9949

v  9.4620 24.4973 -10.3502

v  5.4681 24.4970 -10.3225

v  5.4676 24.4693 6.0227

v  6.4496 24.4693 7.3894

v  8.5081 24.4693 7.3753

v  9.1979 24.4693 6.8082

v  5.7478 24.4693 6.8316

v  9.4620 0.0000 -10.3502

v  5.4681 0.0000 -10.3225

v  9.4614 -0.0000 5.9949

v  9.1980 -0.0000 6.8082

v  8.5081 0.0000 7.3753

v  6.4496 0.0000 7.3894

v  5.7478 -0.0000 6.8316

v  5.4676 -0.0000 6.0227

v  5.4676 0.0000 -10.3843

v  5.4676 24.5645 -10.3843

v  5.4676 24.5644 6.0227

v  5.7478 24.5644 6.8316

v  6.4496 24.5644 7.3894

v  8.5081 24.5644 7.3753

v  9.1979 24.5644 6.8082

v  9.4614 24.5644 5.9949

v  9.4614 24.5645 -10.4123

v  9.4614 0.0000 -10.4123

# 126 vertices



vn -0.9554 0.2560 0.1469

vn -0.9659 0.2588 -0.0000

vn -0.8161 0.2187 0.5350

vn -0.3443 0.0923 0.9343

vn -0.3443 0.0922 0.9343

vn 0.3589 -0.0962 0.9284

vn 0.8250 -0.2211 0.5201

vn 0.9567 -0.2563 0.1379

vn 0.9567 -0.2563 0.1378

vn 0.9659 -0.2588 0.0000

vn 0.2588 0.9659 0.0009

vn 0.2587 0.9659 0.0016

vn 0.2588 0.9659 0.0016

vn 0.2588 0.9659 -0.0000

vn 0.2588 0.9659 0.0000

vn -0.0076 0.0020 -1.0000

vn -0.2588 -0.9659 0.0000

vn -0.2588 -0.9659 -0.0000

vn -0.2589 -0.9659 -0.0000

vn -0.2587 -0.9660 -0.0000

vn -0.0038 0.0010 -1.0000

vn 0.2587 0.9660 0.0000

vn 0.2589 0.9659 0.0000

vn 0.2589 0.9659 -0.0000

vn 0.2587 0.9659 0.0000

vn 0.2588 0.9659 0.0001

vn 0.2588 0.9659 -0.0001

vn 0.2589 0.9659 0.0001

vn 0.2587 0.9660 -0.0000

vn -0.2587 -0.9659 0.0000

vn -0.2588 -0.9659 0.0001

vn -0.2588 -0.9659 0.0002

vn -0.2589 -0.9659 0.0001

vn -0.2590 -0.9659 0.0002

vn -0.2587 -0.9659 -0.0000

vn -0.2589 -0.9659 0.0000

vn -0.2425 -0.9701 -0.0000

vn 0.0000 0.0000 -0.0000

vn 0.9659 -0.2588 -0.0086

vn 0.9659 -0.2588 -0.0089

vn 0.9659 -0.2588 -0.0000

vn 0.9681 -0.2505 0.0000

vn 0.9243 -0.2476 -0.2905

vn 0.6488 -0.1738 -0.7408

vn 0.6489 -0.1738 -0.7408

vn -0.0075 0.0020 -1.0000

vn -0.6609 0.1771 -0.7293

vn -0.6609 0.1770 -0.7293

vn -0.9292 0.2490 -0.2730

vn -0.9293 0.2490 -0.2730

vn -0.9682 0.2501 -0.0000

vn -0.9659 0.2588 0.0089

vn -0.9659 0.2588 0.0090

vn 0.2652 0.9642 0.0000

vn -0.9892 -0.0000 0.1468

vn -1.0000 0.0000 0.0000

vn -0.8449 -0.0000 0.5350

vn -0.3564 -0.0000 0.9344

vn 0.3715 0.0000 0.9284

vn 0.3715 -0.0000 0.9284

vn 0.8541 0.0000 0.5201

vn 0.9905 0.0000 0.1378

vn 0.9905 -0.0000 0.1378

vn 1.0000 0.0000 -0.0000

vn 0.0000 1.0000 0.0009

vn -0.0001 1.0000 0.0016

vn -0.0000 1.0000 -0.0000

vn 0.0000 1.0000 0.0000

vn -0.0000 1.0000 0.0000

vn -0.0079 0.0000 -1.0000

vn 0.0000 -1.0000 -0.0000

vn -0.0039 0.0000 -1.0000

vn 0.0000 1.0000 -0.0000

vn 1.0000 0.0000 -0.0078

vn 1.0000 0.0078 0.0000

vn 0.9569 0.0000 -0.2905

vn 0.6718 0.0000 -0.7407

vn -0.0078 0.0000 -1.0000

vn -0.6842 0.0000 -0.7293

vn -0.9620 0.0000 -0.2732

vn -1.0000 -0.0078 0.0000

vn -1.0000 0.0000 -0.0000

vn -1.0000 -0.0000 0.0077

vn -0.9861 -0.0000 0.1660

vn -0.8160 -0.0000 0.5781

vn -0.3262 -0.0000 0.9453

vn 0.3405 -0.0000 0.9402

vn 0.8265 -0.0000 0.5630

vn 0.9878 -0.0000 0.1560

vn -0.0000 1.0000 0.0009

vn -0.0001 1.0000 0.0017

vn -0.0069 0.0000 -1.0000

vn -0.0000 -1.0000 -0.0000

vn 0.0000 -1.0000 0.0000

vn -0.0000 -1.0000 0.0000

vn -0.0034 0.0000 -1.0000

vn 1.0000 0.0000 -0.0089

vn 1.0000 0.0082 0.0000

vn 0.9449 0.0000 -0.3273

vn 0.6222 0.0000 -0.7829

vn -0.0068 0.0000 -1.0000

vn -0.6350 0.0000 -0.7725

vn -0.9513 0.0000 -0.3082

vn -1.0000 -0.0091 0.0000

vn -1.0000 -0.0000 0.0098

# 105 vertex normals



vt 0.6140 0.0025 0.0000

vt 0.7224 0.0025 0.0000

vt 0.7224 0.1514 0.0000

vt 0.6140 0.1514 0.0000

vt 0.6085 0.0025 0.0000

vt 0.6085 0.1514 0.0000

vt 0.8011 0.3149 0.0000

vt 0.8055 0.3149 0.0000

vt 0.8055 0.4639 0.0000

vt 0.8011 0.4639 0.0000

vt 0.7888 0.4639 0.0000

vt 0.7888 0.3149 0.0000

vt 0.7845 0.3149 0.0000

vt 0.7845 0.4639 0.0000

vt 0.3531 0.0025 0.0000

vt 0.3587 0.0025 0.0000

vt 0.3587 0.1514 0.0000

vt 0.3531 0.1514 0.0000

vt 0.2447 0.0025 0.0000

vt 0.2447 0.1514 0.0000

vt 0.4348 0.9166 0.0000

vt 0.4330 0.8088 0.0000

vt 0.4561 0.8086 0.0000

vt 0.4579 0.9164 0.0000

vt 0.4524 0.9255 0.0000

vt 0.4405 0.9256 0.0000

vt 0.4364 0.9220 0.0000

vt 0.4564 0.9218 0.0000

vt 0.7468 0.4634 0.0000

vt 0.7237 0.4634 0.0000

vt 0.7237 0.3149 0.0000

vt 0.7468 0.3149 0.0000

vt 0.3044 0.6586 0.0000

vt 0.3044 0.7665 0.0000

vt 0.3029 0.7719 0.0000

vt 0.2989 0.7756 0.0000

vt 0.2870 0.7757 0.0000

vt 0.2829 0.7720 0.0000

vt 0.2813 0.7667 0.0000

vt 0.2813 0.6588 0.0000

vt 0.2807 0.7668 0.0000

vt 0.2807 0.6584 0.0000

vt 0.2813 0.6584 0.0000

vt 0.7636 0.7308 0.0000

vt 0.7636 0.5819 0.0000

vt 0.7642 0.5819 0.0000

vt 0.7642 0.7308 0.0000

vt 0.0530 0.4914 0.0000

vt 0.0530 0.3830 0.0000

vt 0.0536 0.3831 0.0000

vt 0.0536 0.4914 0.0000

vt 0.0547 0.3774 0.0000

vt 0.0552 0.3777 0.0000

vt 0.0591 0.3735 0.0000

vt 0.0593 0.3741 0.0000

vt 0.0714 0.3736 0.0000

vt 0.0712 0.3742 0.0000

vt 0.0757 0.3776 0.0000

vt 0.0752 0.3779 0.0000

vt 0.0773 0.3832 0.0000

vt 0.0767 0.3833 0.0000

vt 0.0773 0.4916 0.0000

vt 0.0767 0.4915 0.0000

vt 0.9346 0.1587 0.0000

vt 0.9346 0.3076 0.0000

vt 0.9340 0.3076 0.0000

vt 0.9340 0.1587 0.0000

vt 0.3050 0.6582 0.0000

vt 0.3050 0.7666 0.0000

vt 0.3044 0.6582 0.0000

vt 0.3034 0.7722 0.0000

vt 0.2991 0.7762 0.0000

vt 0.2867 0.7763 0.0000

vt 0.2824 0.7723 0.0000

vt 0.3660 0.6201 0.0000

vt 0.3660 0.4711 0.0000

vt 0.3664 0.4716 0.0000

vt 0.3664 0.6201 0.0000

vt 0.4742 0.4711 0.0000

vt 0.4742 0.4717 0.0000

vt 0.4796 0.4711 0.0000

vt 0.4796 0.4717 0.0000

vt 0.1637 0.6034 0.0000

vt 0.1582 0.6034 0.0000

vt 0.1582 0.6028 0.0000

vt 0.1637 0.6028 0.0000

vt 0.1495 0.6034 0.0000

vt 0.1495 0.6028 0.0000

vt 0.1594 0.5317 0.0000

vt 0.1539 0.5317 0.0000

vt 0.1539 0.5311 0.0000

vt 0.1594 0.5311 0.0000

vt 0.1492 0.5317 0.0000

vt 0.1492 0.5311 0.0000

vt 0.6081 0.3149 0.0000

vt 0.7164 0.3149 0.0000

vt 0.7160 0.3153 0.0000

vt 0.6081 0.3155 0.0000

vt 0.7164 0.4639 0.0000

vt 0.7160 0.4639 0.0000

vt 0.1573 0.3169 0.0000

vt 0.1573 0.2086 0.0000

vt 0.1573 0.3165 0.0000

vt 0.1784 0.6110 0.0000

vt 0.1838 0.6110 0.0000

vt 0.1876 0.6110 0.0000

vt 0.1877 0.6110 0.0000

vt 0.2270 0.4596 0.0000

vt 0.2218 0.4580 0.0000

vt 0.2164 0.4593 0.0000

vt 0.0081 0.6551 0.0000

vt 0.1164 0.6551 0.0000

vt 0.1164 0.8040 0.0000

vt 0.0081 0.8040 0.0000

vt 0.0025 0.6551 0.0000

vt 0.0025 0.8040 0.0000

vt 0.6194 0.7763 0.0000

vt 0.6237 0.7763 0.0000

vt 0.6237 0.9252 0.0000

vt 0.6194 0.9252 0.0000

vt 0.6070 0.9252 0.0000

vt 0.6070 0.7763 0.0000

vt 0.6028 0.7763 0.0000

vt 0.6028 0.9252 0.0000

vt 0.3531 0.3149 0.0000

vt 0.3587 0.3149 0.0000

vt 0.3587 0.4639 0.0000

vt 0.3531 0.4639 0.0000

vt 0.2447 0.3149 0.0000

vt 0.2447 0.4639 0.0000

vt 0.3802 0.9166 0.0000

vt 0.3784 0.8088 0.0000

vt 0.4015 0.8086 0.0000

vt 0.4033 0.9164 0.0000

vt 0.3978 0.9255 0.0000

vt 0.3859 0.9256 0.0000

vt 0.3818 0.9220 0.0000

vt 0.4018 0.9218 0.0000

vt 0.7280 0.6197 0.0000

vt 0.7049 0.6197 0.0000

vt 0.7049 0.4711 0.0000

vt 0.7280 0.4711 0.0000

vt 0.4256 0.5024 0.0000

vt 0.4256 0.6103 0.0000

vt 0.4241 0.6157 0.0000

vt 0.4201 0.6194 0.0000

vt 0.4082 0.6195 0.0000

vt 0.4042 0.6158 0.0000

vt 0.4025 0.6105 0.0000

vt 0.4025 0.5026 0.0000

vt 0.4020 0.6106 0.0000

vt 0.4020 0.5022 0.0000

vt 0.4025 0.5022 0.0000

vt 0.0096 0.4916 0.0000

vt 0.0096 0.3426 0.0000

vt 0.0101 0.3426 0.0000

vt 0.0101 0.4916 0.0000

vt 0.1598 0.3167 0.0000

vt 0.1598 0.2083 0.0000

vt 0.1604 0.2084 0.0000

vt 0.1604 0.3167 0.0000

vt 0.1615 0.2027 0.0000

vt 0.1620 0.2031 0.0000

vt 0.1658 0.1988 0.0000

vt 0.1660 0.1994 0.0000

vt 0.1782 0.1989 0.0000

vt 0.1779 0.1995 0.0000

vt 0.1824 0.2029 0.0000

vt 0.1819 0.2032 0.0000

vt 0.1840 0.2085 0.0000

vt 0.1834 0.2086 0.0000

vt 0.1840 0.3169 0.0000

vt 0.1834 0.3169 0.0000

vt 0.5847 0.7767 0.0000

vt 0.5847 0.9256 0.0000

vt 0.5841 0.9256 0.0000

vt 0.5841 0.7767 0.0000

vt 0.4262 0.5020 0.0000

vt 0.4262 0.6104 0.0000

vt 0.4256 0.5020 0.0000

vt 0.4246 0.6160 0.0000

vt 0.4204 0.6200 0.0000

vt 0.4080 0.6201 0.0000

vt 0.4037 0.6161 0.0000

vt 0.6085 0.3076 0.0000

vt 0.6085 0.1587 0.0000

vt 0.6089 0.1591 0.0000

vt 0.6089 0.3076 0.0000

vt 0.7167 0.1587 0.0000

vt 0.7167 0.1593 0.0000

vt 0.7221 0.1587 0.0000

vt 0.7221 0.1593 0.0000

vt 0.1637 0.6003 0.0000

vt 0.1582 0.6003 0.0000

vt 0.1582 0.5998 0.0000

vt 0.1637 0.5998 0.0000

vt 0.1495 0.6003 0.0000

vt 0.1495 0.5998 0.0000

vt 0.1594 0.6110 0.0000

vt 0.1539 0.6110 0.0000

vt 0.1539 0.6104 0.0000

vt 0.1594 0.6104 0.0000

vt 0.1492 0.6110 0.0000

vt 0.1492 0.6104 0.0000

vt 0.3660 0.6274 0.0000

vt 0.4742 0.6274 0.0000

vt 0.4738 0.6278 0.0000

vt 0.3660 0.6279 0.0000

vt 0.4742 0.7763 0.0000

vt 0.4738 0.7763 0.0000

vt 0.0078 0.9602 0.0000

vt 0.0078 0.8519 0.0000

vt 0.0078 0.9598 0.0000

vt 0.1787 0.6004 0.0000

vt 0.1841 0.6004 0.0000

vt 0.1879 0.6004 0.0000

vt 0.1843 0.6004 0.0000

vt 0.1789 0.6004 0.0000

vt 0.6271 0.1656 0.0000

vt 0.7221 0.1656 0.0000

vt 0.7221 0.3076 0.0000

vt 0.6271 0.3076 0.0000

vt 0.6222 0.1656 0.0000

vt 0.6222 0.3076 0.0000

vt 0.7216 0.7832 0.0000

vt 0.7259 0.7832 0.0000

vt 0.7259 0.9252 0.0000

vt 0.7216 0.9252 0.0000

vt 0.7092 0.9252 0.0000

vt 0.7092 0.7832 0.0000

vt 0.7049 0.7832 0.0000

vt 0.7049 0.9252 0.0000

vt 0.5872 0.4780 0.0000

vt 0.5922 0.4780 0.0000

vt 0.5922 0.6201 0.0000

vt 0.5872 0.6201 0.0000

vt 0.4923 0.4780 0.0000

vt 0.4923 0.6201 0.0000

vt 0.6653 0.7153 0.0000

vt 0.6636 0.6208 0.0000

vt 0.6866 0.6205 0.0000

vt 0.6884 0.7150 0.0000

vt 0.6829 0.7230 0.0000

vt 0.6710 0.7232 0.0000

vt 0.6669 0.7200 0.0000

vt 0.6869 0.7197 0.0000

vt 0.8984 0.3004 0.0000

vt 0.8753 0.3004 0.0000

vt 0.8753 0.1587 0.0000

vt 0.8984 0.1587 0.0000

vt 0.8364 0.3153 0.0000

vt 0.8364 0.4098 0.0000

vt 0.8349 0.4145 0.0000

vt 0.8309 0.4178 0.0000

vt 0.8190 0.4179 0.0000

vt 0.8149 0.4147 0.0000

vt 0.8133 0.4100 0.0000

vt 0.8133 0.3155 0.0000

vt 0.8127 0.4101 0.0000

vt 0.8127 0.3151 0.0000

vt 0.8133 0.3151 0.0000

vt 0.8530 0.1514 0.0000

vt 0.8530 0.0094 0.0000

vt 0.8536 0.0094 0.0000

vt 0.8536 0.1514 0.0000

vt 0.1676 0.5220 0.0000

vt 0.1702 0.6169 0.0000

vt 0.1696 0.6168 0.0000

vt 0.1670 0.5220 0.0000

vt 0.1686 0.6218 0.0000

vt 0.1681 0.6215 0.0000

vt 0.1644 0.6254 0.0000

vt 0.1641 0.6249 0.0000

vt 0.1520 0.6256 0.0000

vt 0.1522 0.6251 0.0000

vt 0.1476 0.6222 0.0000

vt 0.1481 0.6220 0.0000

vt 0.1459 0.6174 0.0000

vt 0.1465 0.6173 0.0000

vt 0.1433 0.5225 0.0000

vt 0.1439 0.5224 0.0000

vt 0.1318 0.0186 0.0000

vt 0.1318 0.1607 0.0000

vt 0.1312 0.1607 0.0000

vt 0.1312 0.0186 0.0000

vt 0.8370 0.3149 0.0000

vt 0.8370 0.4099 0.0000

vt 0.8364 0.3149 0.0000

vt 0.8354 0.4148 0.0000

vt 0.8311 0.4183 0.0000

vt 0.8188 0.4184 0.0000

vt 0.8144 0.4149 0.0000

vt 0.5012 0.4639 0.0000

vt 0.5012 0.3218 0.0000

vt 0.5016 0.3222 0.0000

vt 0.5016 0.4639 0.0000

vt 0.5961 0.3218 0.0000

vt 0.5961 0.3223 0.0000

vt 0.6008 0.3218 0.0000

vt 0.6008 0.3223 0.0000

vt 0.2272 0.3719 0.0000

vt 0.2272 0.3771 0.0000

vt 0.2266 0.3771 0.0000

vt 0.2266 0.3719 0.0000

vt 0.2272 0.3864 0.0000

vt 0.2266 0.3864 0.0000

vt 0.1878 0.6140 0.0000

vt 0.1826 0.6140 0.0000

vt 0.1826 0.6134 0.0000

vt 0.1878 0.6134 0.0000

vt 0.1784 0.6140 0.0000

vt 0.1784 0.6134 0.0000

vt 0.3660 0.7836 0.0000

vt 0.4608 0.7836 0.0000

vt 0.4605 0.7840 0.0000

vt 0.3660 0.7841 0.0000

vt 0.4608 0.9256 0.0000

vt 0.4605 0.9256 0.0000

vt 0.6174 0.2128 0.0000

vt 0.6174 0.3076 0.0000

vt 0.6174 0.2131 0.0000

vt 0.2092 0.6193 0.0000

vt 0.2139 0.6193 0.0000

vt 0.2284 0.4327 0.0000

vt 0.2258 0.4372 0.0000

vt 0.2275 0.4490 0.0000

vt 0.1864 0.5353 0.0000

vt 0.1831 0.5353 0.0000

vt 0.1784 0.5353 0.0000

# 329 texture coords



g 8407

s 1

f 1/1/1 2/2/2 3/3/2

f 3/3/2 4/4/1 1/1/1

f 5/5/3 1/1/1 4/4/1

f 4/4/1 6/6/3 5/5/3

f 7/7/4 5/8/3 6/9/3

f 6/9/3 8/10/5 7/7/4

f 8/10/5 9/11/6 10/12/6

f 10/12/6 7/7/4 8/10/5

f 11/13/7 10/12/6 9/11/6

f 9/11/6 12/14/7 11/13/7

f 13/15/8 11/16/7 12/17/7

f 12/17/7 14/18/9 13/15/8

f 15/19/10 13/15/8 14/18/9

f 14/18/9 16/20/10 15/19/10

s 2

f 17/21/11 18/22/12 19/23/13

f 17/21/11 19/23/13 20/24/11

f 21/25/14 22/26/14 23/27/15

f 24/28/15 21/25/14 23/27/15

f 20/24/11 24/28/15 23/27/15

f 17/21/11 20/24/11 23/27/15

s 4

f 25/29/16 26/30/16 19/31/16

f 19/31/16 18/32/16 25/29/16

s off

f 25/33/17 27/34/17 28/35/17

f 28/35/17 29/36/17 30/37/17

f 30/37/18 31/38/18 32/39/18

f 28/35/18 30/37/18 32/39/18

f 25/33/17 28/35/17 32/39/17

f 26/40/18 25/33/18 32/39/18

f 4/41/19 3/42/19 33/43/19

f 33/43/20 32/39/20 4/41/20

f 3/44/21 2/45/21 34/46/21

f 34/46/21 33/47/21 3/44/21

f 2/48/22 1/49/22 35/50/22

f 35/50/23 34/51/23 2/48/23

f 1/49/24 5/52/24 36/53/24

f 36/53/25 35/50/25 1/49/25

f 5/52/24 7/54/24 37/55/24

f 37/55/24 36/53/24 5/52/24

f 7/54/26 10/56/26 38/57/26

f 38/57/27 37/55/27 7/54/27

f 10/56/27 11/58/27 39/59/27

f 39/59/28 38/57/28 10/56/28

f 11/58/29 13/60/29 40/61/29

f 40/61/29 39/59/29 11/58/29

f 13/60/22 15/62/22 41/63/22

f 41/63/22 40/61/22 13/60/22

f 15/64/21 16/65/21 42/66/21

f 42/66/21 41/67/21 15/64/21

f 16/68/19 14/69/19 27/34/19

f 27/34/20 42/70/20 16/68/20

f 14/69/30 12/71/30 28/35/30

f 28/35/19 27/34/19 14/69/19

f 12/71/17 9/72/17 29/36/17

f 29/36/31 28/35/31 12/71/31

f 9/72/32 8/73/32 30/37/32

f 30/37/31 29/36/31 9/72/31

f 8/73/33 6/74/33 31/38/33

f 31/38/34 30/37/34 8/73/34

f 6/74/35 4/41/35 32/39/35

f 32/39/36 31/38/36 6/74/36

f 32/39/37 33/43/37 26/40/37

f 26/40/38 32/39/38 32/39/38

f 33/75/39 34/76/39 19/77/39

f 19/77/40 26/78/40 33/75/40

f 34/76/41 35/79/41 20/80/41

f 20/80/42 19/77/42 34/76/42

f 35/79/43 36/81/43 24/82/43

f 24/82/43 20/80/43 35/79/43

f 36/83/44 37/84/44 21/85/44

f 21/85/45 24/86/45 36/83/45

f 37/84/46 38/87/46 22/88/46

f 22/88/46 21/85/46 37/84/46

f 38/89/47 39/90/47 23/91/47

f 23/91/48 22/92/48 38/89/48

f 39/90/49 40/93/49 17/94/49

f 17/94/50 23/91/50 39/90/50

f 40/95/51 41/96/51 18/97/51

f 18/97/2 17/98/2 40/95/2

f 41/96/52 42/99/52 25/100/52

f 25/100/53 18/97/53 41/96/53

f 42/101/38 27/102/38 27/102/38

f 27/102/54 25/103/54 42/101/54

f 27/104/38 28/105/38 28/105/38

f 28/105/38 27/104/38 27/104/38

f 28/105/38 29/106/38 29/106/38

f 29/106/38 28/105/38 28/105/38

f 29/106/38 30/107/38 30/107/38

f 30/107/38 29/106/38 29/106/38

f 30/108/14 31/109/14 31/109/14

f 31/109/38 30/108/38 30/108/38

f 31/109/38 32/110/38 32/110/38

f 32/110/14 31/109/14 31/109/14

s 1

f 43/111/55 44/112/56 45/113/56

f 45/113/56 46/114/55 43/111/55

f 47/115/57 43/111/55 46/114/55

f 46/114/55 48/116/57 47/115/57

f 49/117/58 47/118/57 48/119/57

f 48/119/57 50/120/58 49/117/58

f 50/120/58 51/121/59 52/122/60

f 52/122/60 49/117/58 50/120/58

f 53/123/61 52/122/60 51/121/59

f 51/121/59 54/124/61 53/123/61

f 55/125/62 53/126/61 54/127/61

f 54/127/61 56/128/63 55/125/62

f 57/129/64 55/125/62 56/128/63

f 56/128/63 58/130/64 57/129/64

s 2

f 59/131/65 60/132/66 61/133/66

f 59/131/65 61/133/66 62/134/65

f 63/135/67 64/136/68 65/137/68

f 66/138/69 63/135/67 65/137/68

f 62/134/65 66/138/69 65/137/68

f 59/131/65 62/134/65 65/137/68

s 4

f 67/139/70 68/140/70 61/141/70

f 61/141/70 60/142/70 67/139/70

s off

f 67/143/71 69/144/71 70/145/71

f 70/145/71 71/146/71 72/147/71

f 72/147/71 73/148/71 74/149/71

f 70/145/71 72/147/71 74/149/71

f 67/143/71 70/145/71 74/149/71

f 68/150/71 67/143/71 74/149/71

f 46/151/71 45/152/71 75/153/71

f 75/153/71 74/149/71 46/151/71

f 45/154/72 44/155/72 76/156/72

f 76/156/72 75/157/72 45/154/72

f 44/158/68 43/159/68 77/160/68

f 77/160/68 76/161/68 44/158/68

f 43/159/68 47/162/68 78/163/68

f 78/163/68 77/160/68 43/159/68

f 47/162/73 49/164/73 79/165/73

f 79/165/73 78/163/73 47/162/73

f 49/164/73 52/166/73 80/167/73

f 80/167/73 79/165/73 49/164/73

f 52/166/73 53/168/73 81/169/73

f 81/169/73 80/167/73 52/166/73

f 53/168/69 55/170/69 82/171/69

f 82/171/69 81/169/69 53/168/69

f 55/170/68 57/172/68 83/173/68

f 83/173/69 82/171/69 55/170/69

f 57/174/72 58/175/72 84/176/72

f 84/176/72 83/177/72 57/174/72

f 58/178/71 56/179/71 69/144/71

f 69/144/71 84/180/71 58/178/71

f 56/179/71 54/181/71 70/145/71

f 70/145/71 69/144/71 56/179/71

f 54/181/71 51/182/71 71/146/71

f 71/146/71 70/145/71 54/181/71

f 51/182/71 50/183/71 72/147/71

f 72/147/71 71/146/71 51/182/71

f 50/183/71 48/184/71 73/148/71

f 73/148/71 72/147/71 50/183/71

f 48/184/71 46/151/71 74/149/71

f 74/149/71 73/148/71 48/184/71

f 74/149/71 75/153/71 68/150/71

f 68/150/38 74/149/38 74/149/38

f 75/185/74 76/186/74 61/187/74

f 61/187/74 68/188/74 75/185/74

f 76/186/64 77/189/64 62/190/64

f 62/190/75 61/187/75 76/186/75

f 77/189/76 78/191/76 66/192/76

f 66/192/76 62/190/76 77/189/76

f 78/193/77 79/194/77 63/195/77

f 63/195/77 66/196/77 78/193/77

f 79/194/78 80/197/78 64/198/78

f 64/198/78 63/195/78 79/194/78

f 80/199/79 81/200/79 65/201/79

f 65/201/79 64/202/79 80/199/79

f 81/200/80 82/203/80 59/204/80

f 59/204/80 65/201/80 81/200/80

f 82/205/81 83/206/81 60/207/81

f 60/207/82 59/208/82 82/205/82

f 83/206/83 84/209/83 67/210/83

f 67/210/83 60/207/83 83/206/83

f 84/211/38 69/212/38 69/212/38

f 69/212/73 67/213/73 84/211/73

f 69/214/38 70/215/38 70/215/38

f 70/215/38 69/214/38 69/214/38

f 70/215/38 71/216/38 71/216/38

f 71/216/38 70/215/38 70/215/38

f 71/216/38 72/216/38 72/216/38

f 72/216/38 71/216/38 71/216/38

f 72/216/38 73/217/38 73/217/38

f 73/217/38 72/216/38 72/216/38

f 73/217/38 74/218/38 74/218/38

f 74/218/38 73/217/38 73/217/38

s 1

f 85/219/84 86/220/56 87/221/56

f 87/221/56 88/222/84 85/219/84

f 89/223/85 85/219/84 88/222/84

f 88/222/84 90/224/85 89/223/85

f 91/225/86 89/226/85 90/227/85

f 90/227/85 92/228/86 91/225/86

f 92/228/86 93/229/87 94/230/87

f 94/230/87 91/225/86 92/228/86

f 95/231/88 94/230/87 93/229/87

f 93/229/87 96/232/88 95/231/88

f 97/233/89 95/234/88 96/235/88

f 96/235/88 98/236/89 97/233/89

f 99/237/64 97/233/89 98/236/89

f 98/236/89 100/238/64 99/237/64

s 2

f 101/239/90 102/240/91 103/241/91

f 101/239/90 103/241/91 104/242/65

f 105/243/67 106/244/68 107/245/68

f 108/246/69 105/243/67 107/245/68

f 104/242/65 108/246/69 107/245/68

f 101/239/90 104/242/65 107/245/68

s 4

f 109/247/92 110/248/92 103/249/92

f 103/249/92 102/250/92 109/247/92

s off

f 109/251/93 111/252/93 112/253/93

f 112/253/94 113/254/94 114/255/94

f 114/255/71 115/256/71 116/257/71

f 112/253/95 114/255/95 116/257/95

f 109/251/71 112/253/71 116/257/71

f 110/258/93 109/251/93 116/257/93

f 88/259/93 87/260/93 117/261/93

f 117/261/93 116/257/93 88/259/93

f 87/262/96 86/263/96 118/264/96

f 118/264/96 117/265/96 87/262/96

f 86/266/68 85/267/68 119/268/68

f 119/268/68 118/269/68 86/266/68

f 85/267/68 89/270/68 120/271/68

f 120/271/68 119/268/68 85/267/68

f 89/270/73 91/272/73 121/273/73

f 121/273/73 120/271/73 89/270/73

f 91/272/73 94/274/73 122/275/73

f 122/275/73 121/273/73 91/272/73

f 94/274/73 95/276/73 123/277/73

f 123/277/73 122/275/73 94/274/73

f 95/276/69 97/278/69 124/279/69

f 124/279/69 123/277/69 95/276/69

f 97/278/68 99/280/68 125/281/68

f 125/281/69 124/279/69 97/278/69

f 99/282/96 100/283/96 126/284/96

f 126/284/96 125/285/96 99/282/96

f 100/286/71 98/287/71 111/252/71

f 111/252/93 126/288/93 100/286/93

f 98/287/71 96/289/71 112/253/71

f 112/253/71 111/252/71 98/287/71

f 96/289/95 93/290/95 113/254/95

f 113/254/95 112/253/95 96/289/95

f 93/290/71 92/291/71 114/255/71

f 114/255/71 113/254/71 93/290/71

f 92/291/94 90/292/94 115/256/94

f 115/256/94 114/255/94 92/291/94

f 90/292/71 88/259/71 116/257/71

f 116/257/71 115/256/71 90/292/71

f 116/257/71 117/261/71 110/258/71

f 110/258/38 116/257/38 116/257/38

f 117/293/97 118/294/97 103/295/97

f 103/295/97 110/296/97 117/293/97

f 118/294/64 119/297/64 104/298/64

f 104/298/98 103/295/98 118/294/98

f 119/297/99 120/299/99 108/300/99

f 108/300/99 104/298/99 119/297/99

f 120/301/100 121/302/100 105/303/100

f 105/303/100 108/304/100 120/301/100

f 121/302/101 122/305/101 106/306/101

f 106/306/101 105/303/101 121/302/101

f 122/307/102 123/308/102 107/309/102

f 107/309/102 106/310/102 122/307/102

f 123/308/103 124/311/103 101/312/103

f 101/312/103 107/309/103 123/308/103

f 124/313/104 125/314/104 102/315/104

f 102/315/82 101/316/82 124/313/82

f 125/314/105 126/317/105 109/318/105

f 109/318/105 102/315/105 125/314/105

f 126/319/38 111/320/38 111/320/38

f 111/320/69 109/321/69 126/319/69

f 111/322/38 112/323/38 112/323/38

f 112/323/38 111/322/38 111/322/38

f 112/324/73 113/325/73 113/325/73

f 113/325/38 112/324/38 112/324/38

f 113/325/38 114/326/38 114/326/38

f 114/326/73 113/325/73 113/325/73

f 114/327/38 115/328/38 115/328/38

f 115/328/38 114/327/38 114/327/38

f 115/328/38 116/329/38 116/329/38

f 116/329/38 115/328/38 115/328/38

# 276 faces



